<svg width="24" height="24" viewBox="0 0 24 24" fill="none" xmlns="http://www.w3.org/2000/svg">
<path d="M18.0186 8.48815C17.7119 7.20508 17.0139 6.03977 16.0129 5.15665C14.8364 4.11879 13.3237 3.54724 11.7533 3.54724C8.20144 3.54724 5.31173 6.43694 5.31173 9.98885C5.31173 10.044 5.31244 10.0991 5.31384 10.1543C5.25933 10.1525 5.20491 10.1517 5.15048 10.1517C2.31052 10.1517 0 12.4622 0 15.3022C0 18.1422 2.31052 20.4528 5.15053 20.4528H18.0177C21.3164 20.4528 24 17.7691 24 14.4705C24 11.172 21.317 8.48848 18.0186 8.48815ZM18.0177 19.0465H5.15053C3.08592 19.0465 1.40625 17.3668 1.40625 15.3022C1.40625 13.2377 3.08592 11.5579 5.15053 11.5579C5.41645 11.5579 5.68467 11.5869 5.94764 11.6439L6.96389 11.8641L6.78975 10.839C6.74217 10.5587 6.71803 10.2727 6.71803 9.9889C6.71803 7.2124 8.97689 4.95354 11.7534 4.95354C14.2666 4.95354 16.4121 6.82891 16.7439 9.31587L16.8346 9.99602L17.5168 9.92187C17.6839 9.90368 17.8524 9.89449 18.0177 9.89449C20.541 9.89449 22.5938 11.9473 22.5938 14.4705C22.5938 16.9938 20.541 19.0465 18.0177 19.0465Z" fill="#0066FF"/>
<path d="M14.331 13.0875C14.2043 12.7583 14.0245 12.4645 13.7916 12.2062C13.5586 11.9478 13.2775 11.7402 12.9483 11.5832C12.619 11.4263 12.2543 11.3477 11.8542 11.3477C11.4641 11.3477 11.1045 11.4225 10.7754 11.5718C10.4461 11.7213 10.1611 11.9213 9.92065 12.172C9.68004 12.4227 9.49259 12.7128 9.35843 13.0419C9.22418 13.3712 9.1571 13.7131 9.1571 14.0676C9.1571 14.4171 9.2217 14.7565 9.35084 15.0857C9.47998 15.415 9.66101 15.7075 9.89407 15.9632C10.127 16.219 10.4081 16.4254 10.7374 16.5824C11.0666 16.7395 11.4313 16.8179 11.8314 16.8179C12.2214 16.8179 12.5809 16.7419 12.9103 16.59C13.2395 16.4381 13.5231 16.2367 13.7612 15.986C13.9992 15.7353 14.1854 15.4454 14.3196 15.1161C14.4538 14.7869 14.521 14.445 14.521 14.0904C14.521 13.7511 14.4576 13.4168 14.331 13.0875ZM13.1648 14.664C13.1065 14.8591 13.0191 15.0338 12.9027 15.1882C12.7861 15.3428 12.6392 15.4682 12.462 15.5643C12.2847 15.6606 12.077 15.7087 11.839 15.7087C11.6111 15.7087 11.4085 15.6631 11.2312 15.5719C11.0539 15.4807 10.9057 15.3592 10.7868 15.2072C10.6677 15.0552 10.5778 14.8818 10.517 14.6868C10.4562 14.4918 10.4259 14.2905 10.4259 14.0828C10.4259 13.8803 10.455 13.6814 10.5132 13.4864C10.5714 13.2914 10.6601 13.1179 10.7792 12.9659C10.8981 12.814 11.0451 12.6912 11.2198 12.5974C11.3945 12.5037 11.6008 12.4569 11.839 12.4569C12.067 12.4569 12.2683 12.5013 12.443 12.5898C12.6178 12.6785 12.7659 12.7975 12.8875 12.9469C13.0091 13.0963 13.1003 13.2686 13.161 13.4635C13.2218 13.6585 13.2522 13.8599 13.2522 14.0675C13.2522 14.2702 13.2229 14.4691 13.1648 14.664Z" fill="#0066FF"/>
<path d="M15.3364 17.246C15.3578 17.2223 15.3892 17.1956 15.4309 17.1659C15.4724 17.1362 15.5176 17.1065 15.5663 17.0768C15.615 17.0471 15.6643 17.018 15.7142 16.9894C15.7641 16.9609 15.8068 16.936 15.8425 16.9146C15.8947 16.8837 15.9458 16.8499 15.9957 16.813C16.0456 16.7762 16.0907 16.7334 16.1311 16.6847C16.1715 16.636 16.2042 16.5808 16.2291 16.519C16.2541 16.4573 16.2666 16.3871 16.2666 16.3087C16.2666 16.1187 16.1983 15.9678 16.0616 15.8561C15.925 15.7444 15.7284 15.6886 15.4718 15.6886C15.3672 15.6886 15.2669 15.6981 15.1707 15.7171C15.0744 15.7361 14.9859 15.7616 14.9052 15.7937C14.8244 15.8258 14.7519 15.862 14.6878 15.9024C14.6236 15.9428 14.5725 15.9844 14.5345 16.0272L14.898 16.4477C14.9669 16.3693 15.0381 16.3058 15.1118 16.2571C15.1854 16.2084 15.2722 16.184 15.372 16.184C15.4599 16.184 15.5276 16.2042 15.5751 16.2446C15.6226 16.285 15.6464 16.3385 15.6464 16.4049C15.6464 16.4382 15.6369 16.4673 15.6179 16.4923C15.5989 16.5172 15.5675 16.5451 15.5235 16.576C15.4795 16.607 15.4201 16.6426 15.3453 16.683C15.2705 16.7234 15.1772 16.7745 15.0656 16.8362C14.961 16.8957 14.8743 16.9562 14.8054 17.018C14.7365 17.0798 14.6819 17.1469 14.6414 17.2193C14.601 17.2918 14.5725 17.372 14.5559 17.4599C14.5393 17.5478 14.531 17.6476 14.531 17.7592H16.3058V17.246H15.3364Z" fill="#0066FF"/>
</svg>
