<svg width="24" height="24" viewBox="0 0 24 24" fill="none" xmlns="http://www.w3.org/2000/svg">
<path d="M18.0186 8.48815C17.7119 7.20508 17.0139 6.03977 16.0129 5.15665C14.8364 4.11879 13.3237 3.54724 11.7533 3.54724C8.20144 3.54724 5.31173 6.43694 5.31173 9.98885C5.31173 10.044 5.31244 10.0991 5.31384 10.1543C5.25933 10.1525 5.20491 10.1517 5.15048 10.1517C2.31052 10.1517 0 12.4622 0 15.3022C0 18.1422 2.31052 20.4528 5.15053 20.4528H18.0177C21.3164 20.4528 24 17.7691 24 14.4705C24 11.172 21.317 8.48848 18.0186 8.48815ZM18.0177 19.0465H5.15053C3.08592 19.0465 1.40625 17.3668 1.40625 15.3022C1.40625 13.2377 3.08592 11.5579 5.15053 11.5579C5.41645 11.5579 5.68467 11.5869 5.94764 11.6439L6.96389 11.8641L6.78975 10.839C6.74217 10.5587 6.71803 10.2727 6.71803 9.9889C6.71803 7.2124 8.97689 4.95354 11.7534 4.95354C14.2666 4.95354 16.4121 6.82891 16.7439 9.31587L16.8346 9.99602L17.5168 9.92187C17.6839 9.90368 17.8524 9.89449 18.0177 9.89449C20.541 9.89449 22.5938 11.9473 22.5938 14.4705C22.5938 16.9938 20.541 19.0465 18.0177 19.0465Z" fill="#0066FF"/>
<path d="M10.8807 14.964C10.825 15.1009 10.7516 15.2162 10.6605 15.3098C10.5693 15.4036 10.4692 15.4796 10.3604 15.5378C10.2514 15.596 10.1374 15.6392 10.0185 15.6669C9.89939 15.6948 9.78412 15.7087 9.67275 15.7087C9.45492 15.7087 9.2587 15.6644 9.08395 15.5757C8.9092 15.4872 8.75976 15.3668 8.63569 15.2148C8.51151 15.0629 8.41654 14.8882 8.35078 14.6906C8.28487 14.4931 8.25201 14.2879 8.25201 14.0752C8.25201 13.8777 8.27981 13.6828 8.33559 13.4902C8.39128 13.2978 8.47734 13.1255 8.59392 12.9736C8.71036 12.8216 8.85722 12.6976 9.03454 12.6013C9.21178 12.5052 9.41939 12.457 9.65751 12.457C9.76889 12.457 9.88284 12.4683 9.99942 12.4911C10.1159 12.5139 10.2298 12.5545 10.3413 12.6127C10.4527 12.6709 10.5552 12.7469 10.649 12.8406C10.7426 12.9343 10.8199 13.0521 10.8807 13.1939L11.838 12.5253C11.6556 12.1758 11.3783 11.8922 11.0061 11.6744C10.6338 11.4566 10.1943 11.3477 9.68789 11.3477C9.26245 11.3477 8.88258 11.4263 8.54826 11.5832C8.214 11.7402 7.93026 11.9454 7.69734 12.1986C7.46433 12.4519 7.28709 12.7393 7.1655 13.0609C7.04395 13.3826 6.98315 13.7055 6.98315 14.0296C6.98315 14.3741 7.04775 14.7133 7.17689 15.0476C7.30603 15.3819 7.48837 15.6808 7.72392 15.9441C7.95942 16.2076 8.24053 16.419 8.56725 16.5785C8.89392 16.738 9.25219 16.8178 9.64233 16.8178C9.86512 16.8178 10.0931 16.7899 10.3261 16.7342C10.559 16.6786 10.7793 16.5975 10.9871 16.4911C11.1947 16.3847 11.3783 16.2531 11.5379 16.096C11.6974 15.9391 11.8177 15.7618 11.8988 15.5642L10.8807 14.964Z" fill="#0066FF"/>
<path d="M17.331 13.0875C17.2043 12.7583 17.0245 12.4645 16.7916 12.2062C16.5586 11.9478 16.2775 11.7402 15.9483 11.5832C15.619 11.4263 15.2543 11.3477 14.8542 11.3477C14.4641 11.3477 14.1045 11.4225 13.7754 11.5718C13.4461 11.7213 13.1611 11.9213 12.9207 12.172C12.68 12.4227 12.4926 12.7128 12.3584 13.0419C12.2242 13.3712 12.1571 13.7131 12.1571 14.0676C12.1571 14.4171 12.2217 14.7565 12.3508 15.0857C12.48 15.415 12.661 15.7075 12.8941 15.9632C13.127 16.219 13.4081 16.4254 13.7374 16.5824C14.0666 16.7395 14.4313 16.8179 14.8314 16.8179C15.2214 16.8179 15.5809 16.7419 15.9103 16.59C16.2395 16.4381 16.5231 16.2367 16.7612 15.986C16.9992 15.7353 17.1854 15.4454 17.3196 15.1161C17.4538 14.7869 17.521 14.445 17.521 14.0904C17.521 13.7511 17.4576 13.4168 17.331 13.0875ZM16.1648 14.664C16.1065 14.8591 16.0191 15.0338 15.9027 15.1882C15.7861 15.3428 15.6392 15.4682 15.462 15.5643C15.2847 15.6606 15.077 15.7087 14.839 15.7087C14.6111 15.7087 14.4085 15.6631 14.2312 15.5719C14.0539 15.4807 13.9057 15.3592 13.7868 15.2072C13.6677 15.0552 13.5778 14.8818 13.517 14.6868C13.4562 14.4918 13.4259 14.2905 13.4259 14.0828C13.4259 13.8803 13.455 13.6814 13.5132 13.4864C13.5714 13.2914 13.6601 13.1179 13.7792 12.9659C13.8981 12.814 14.0451 12.6912 14.2198 12.5974C14.3945 12.5037 14.6008 12.4569 14.839 12.4569C15.067 12.4569 15.2683 12.5013 15.443 12.5898C15.6178 12.6785 15.7659 12.7975 15.8875 12.9469C16.0091 13.0963 16.1003 13.2686 16.161 13.4635C16.2218 13.6585 16.2522 13.8599 16.2522 14.0675C16.2522 14.2702 16.2229 14.4691 16.1648 14.664Z" fill="#0066FF"/>
<path d="M18.3364 17.246C18.3578 17.2223 18.3892 17.1956 18.4309 17.1659C18.4724 17.1362 18.5176 17.1065 18.5663 17.0768C18.615 17.0471 18.6643 17.018 18.7142 16.9894C18.7641 16.9609 18.8068 16.936 18.8425 16.9146C18.8947 16.8837 18.9458 16.8499 18.9957 16.813C19.0456 16.7762 19.0907 16.7334 19.1311 16.6847C19.1715 16.636 19.2042 16.5808 19.2291 16.519C19.2541 16.4573 19.2666 16.3871 19.2666 16.3087C19.2666 16.1187 19.1983 15.9678 19.0616 15.8561C18.925 15.7444 18.7284 15.6886 18.4718 15.6886C18.3672 15.6886 18.2669 15.6981 18.1707 15.7171C18.0744 15.7361 17.9859 15.7616 17.9052 15.7937C17.8244 15.8258 17.7519 15.862 17.6878 15.9024C17.6236 15.9428 17.5725 15.9844 17.5345 16.0272L17.898 16.4477C17.9669 16.3693 18.0381 16.3058 18.1118 16.2571C18.1854 16.2084 18.2722 16.184 18.372 16.184C18.4599 16.184 18.5276 16.2042 18.5751 16.2446C18.6226 16.285 18.6464 16.3385 18.6464 16.4049C18.6464 16.4382 18.6369 16.4673 18.6179 16.4923C18.5989 16.5172 18.5675 16.5451 18.5235 16.576C18.4795 16.607 18.4201 16.6426 18.3453 16.683C18.2705 16.7234 18.1772 16.7745 18.0656 16.8362C17.961 16.8957 17.8743 16.9562 17.8054 17.018C17.7365 17.0798 17.6819 17.1469 17.6414 17.2193C17.601 17.2918 17.5725 17.372 17.5559 17.4599C17.5393 17.5478 17.531 17.6476 17.531 17.7592H19.3058V17.246H18.3364Z" fill="#0066FF"/>
</svg>
