<svg width="24" height="24" viewBox="0 0 24 24" fill="none" xmlns="http://www.w3.org/2000/svg">
<path d="M15.2271 4.69183H4.77698C3.79642 4.69183 3 5.48825 3 6.46882V21.4627C3 22.4432 3.79642 23.2397 4.77698 23.2397H15.2271C16.2077 23.2397 17.0041 22.4432 17.0041 21.4627V6.46882C16.9995 5.48825 16.2031 4.69183 15.2271 4.69183ZM15.7565 21.4581C15.7565 21.7527 15.5171 21.9921 15.2225 21.9921H4.77238C4.47775 21.9921 4.23836 21.7527 4.23836 21.4581V6.46882C4.23836 6.17419 4.47775 5.9348 4.77238 5.9348H15.2225C15.5171 5.9348 15.7565 6.17419 15.7565 6.46882V21.4581Z" fill="#0066FF" stroke="#0066FF" stroke-width="0.2"/>
<path d="M19.2228 0.760376H8.77271C7.79215 0.760376 6.99573 1.5568 6.99573 2.53736C6.99573 2.88263 7.27194 3.15884 7.61721 3.15884C7.96248 3.15884 8.23869 2.88263 8.23869 2.53736C8.23869 2.24273 8.47808 2.00334 8.77271 2.00334H19.2228C19.5175 2.00334 19.7569 2.24273 19.7569 2.53736V17.5312C19.7569 17.8259 19.5175 18.0652 19.2228 18.0652C18.8776 18.0652 18.6014 18.3415 18.6014 18.6867C18.6014 19.032 18.8776 19.3082 19.2228 19.3082C20.2034 19.3082 20.9998 18.5118 20.9998 17.5312V2.53736C20.9998 1.5568 20.2034 0.760376 19.2228 0.760376Z" fill="#0066FF" stroke="#0066FF" stroke-width="0.2"/>
<path fill-rule="evenodd" clip-rule="evenodd" d="M9.9998 17.75C9.50043 17.75 6.875 15.6243 6.875 13.4014C6.875 11.6611 8.27379 10.25 9.9998 10.25C11.7258 10.25 13.125 11.6611 13.125 13.4014C13.125 15.6243 10.4992 17.75 9.9998 17.75Z" stroke="#0066FF" stroke-width="1.5" stroke-linecap="round" stroke-linejoin="round"/>
</svg>
