<svg width="55" height="11" viewBox="0 0 55 11" fill="none" xmlns="http://www.w3.org/2000/svg">
<path d="M2.19705 3.22359L2.25092 5.43694L5.23804 5.36423L5.27614 6.92977L2.28903 7.00247L2.37181 10.4035L0.332413 10.4531L0.119692 1.7137L5.74603 1.57675L5.78399 3.13629L2.19705 3.22359ZM8.56574 4.98915C8.74951 4.64857 8.96302 4.3793 9.20627 4.18132C9.45353 3.98325 9.7391 3.88027 10.063 3.87238C10.3429 3.86557 10.5725 3.926 10.7516 4.05368L10.6649 5.42419C10.6471 5.51265 10.6146 5.57346 10.5674 5.60662C10.5241 5.63968 10.4626 5.65719 10.3826 5.65913C10.3506 5.65991 10.3086 5.65894 10.2565 5.6562C10.2044 5.65347 10.1503 5.65078 10.0942 5.64815C10.038 5.64151 9.97992 5.63693 9.91984 5.63439C9.86366 5.62775 9.81158 5.62502 9.7636 5.62619C9.49168 5.63281 9.27549 5.71009 9.11505 5.85804C8.9586 6.00589 8.8275 6.20914 8.72177 6.46779L8.81375 10.2467L6.9543 10.2919L6.80289 4.07177L7.90657 4.04491C7.99854 4.04267 8.07471 4.04882 8.13508 4.06335C8.19945 4.07779 8.25207 4.10252 8.29294 4.13753C8.3377 4.16845 8.37076 4.21166 8.39212 4.26716C8.41748 4.32256 8.43912 4.39005 8.45707 4.46964L8.56574 4.98915ZM14.6428 3.78491C15.1147 3.77343 15.5463 3.83694 15.9378 3.97546C16.3293 4.11397 16.6664 4.31783 16.949 4.58704C17.2356 4.85614 17.4597 5.18679 17.6213 5.57897C17.7868 5.96706 17.8756 6.40703 17.8875 6.89888C17.8996 7.39474 17.8325 7.8445 17.6863 8.24818C17.544 8.64776 17.3363 8.99092 17.0632 9.27765C16.794 9.56028 16.4673 9.7823 16.0831 9.94369C15.6988 10.1011 15.2707 10.1855 14.7989 10.197C14.323 10.2086 13.8873 10.1452 13.4919 10.0068C13.1003 9.86425 12.7592 9.65849 12.4685 9.38948C12.1818 9.11638 11.9556 8.78378 11.7901 8.3917C11.6284 7.99551 11.5415 7.54949 11.5294 7.05364C11.5174 6.56179 11.5827 6.11807 11.7251 5.72249C11.8714 5.32281 12.0812 4.9816 12.3544 4.69887C12.6316 4.41604 12.9623 4.19593 13.3466 4.03853C13.7349 3.88104 14.1669 3.7965 14.6428 3.78491ZM14.7653 8.81742C15.1932 8.80701 15.5034 8.64941 15.6961 8.34464C15.8926 8.03576 15.9834 7.57342 15.9684 6.9576C15.9534 6.34178 15.8403 5.8864 15.629 5.59145C15.4218 5.29641 15.1043 5.15409 14.6764 5.16451C14.2365 5.17521 13.9183 5.333 13.7216 5.63788C13.525 5.94275 13.4341 6.4031 13.4491 7.01892C13.4641 7.63474 13.5773 8.09212 13.7886 8.39106C13.9999 8.68601 14.3254 8.82813 14.7653 8.81742ZM19.3998 9.989L19.2484 3.76884L20.4001 3.74081C20.632 3.73516 20.7865 3.83543 20.8635 4.04162L20.9737 4.37504C21.075 4.26454 21.1806 4.16394 21.2904 4.07324C21.4002 3.97854 21.5182 3.89765 21.6446 3.83055C21.7749 3.75936 21.9136 3.70397 22.0607 3.66438C22.2117 3.62069 22.3772 3.59666 22.5571 3.59228C22.933 3.58313 23.2453 3.67356 23.494 3.86356C23.7466 4.04947 23.9408 4.30282 24.0767 4.62361C24.176 4.42913 24.2979 4.26212 24.4426 4.12256C24.5912 3.9829 24.7505 3.86899 24.9204 3.78083C25.0943 3.69257 25.2767 3.62611 25.4677 3.58145C25.6627 3.53669 25.8561 3.51198 26.0481 3.50731C26.404 3.49864 26.7212 3.54494 26.9997 3.64619C27.2782 3.74344 27.5119 3.8918 27.7008 4.09126C27.8936 4.28663 28.0416 4.5311 28.1448 4.82468C28.2478 5.11426 28.3039 5.44499 28.3129 5.81688L28.4092 9.76971L26.5497 9.81497L26.4535 5.86214C26.4378 5.21833 26.1541 4.90314 25.6022 4.91657C25.3503 4.9227 25.1424 5.01179 24.9786 5.18383C24.8186 5.35177 24.7424 5.59169 24.75 5.9036L24.8462 9.85643L22.9868 9.90169L22.8906 5.94886C22.8819 5.59297 22.8058 5.34474 22.6624 5.20419C22.5189 5.06364 22.3112 4.99668 22.0393 5.0033C21.8713 5.00738 21.7123 5.04927 21.5622 5.12894C21.4161 5.20852 21.2786 5.3139 21.1498 5.44507L21.2593 9.94374L19.3998 9.989ZM33.6581 8.03947C33.93 8.03285 34.1709 7.98298 34.3807 7.88985C34.5944 7.79262 34.7732 7.65823 34.917 7.48668C35.0609 7.31512 35.1679 7.10846 35.238 6.86668C35.3121 6.62081 35.3454 6.34391 35.3379 6.03601L35.2119 0.859538L37.2393 0.810191L37.3653 5.98666C37.3783 6.5225 37.3023 7.01649 37.1373 7.46864C36.9762 7.9207 36.7377 8.31262 36.4217 8.64441C36.1056 8.97619 35.7179 9.23771 35.2584 9.42894C34.7989 9.62018 34.2793 9.72286 33.6994 9.73697C33.1156 9.75118 32.5896 9.67396 32.1213 9.5053C31.6531 9.33665 31.2531 9.09431 30.9213 8.77829C30.5895 8.46227 30.3322 8.08242 30.1493 7.63873C29.9665 7.19505 29.8685 6.70529 29.8555 6.16945L29.7295 0.992982L31.7569 0.943634L31.8827 6.1141C31.8902 6.42201 31.9349 6.69701 32.0169 6.93908C32.1027 7.17707 32.2216 7.38023 32.3738 7.54858C32.5258 7.71293 32.7089 7.83851 32.9231 7.92532C33.1412 8.00804 33.3862 8.04609 33.6581 8.03947ZM44.1947 2.41742C44.1371 2.51485 44.0748 2.58839 44.008 2.63803C43.9452 2.68757 43.8618 2.71361 43.7579 2.71614C43.6659 2.71838 43.5652 2.69282 43.4559 2.63946C43.3505 2.58201 43.2289 2.51895 43.0912 2.45028C42.9575 2.38151 42.804 2.32123 42.6306 2.26943C42.4572 2.21364 42.2606 2.18841 42.0406 2.19377C41.6607 2.20301 41.3788 2.2919 41.1949 2.46043C41.0148 2.62486 40.9282 2.84503 40.9349 3.12095C40.9391 3.2969 40.9987 3.44149 41.1135 3.55473C41.2283 3.66797 41.3767 3.76439 41.5586 3.84398C41.7446 3.92348 41.9545 3.9964 42.1882 4.06273C42.4257 4.12497 42.6676 4.19711 42.9136 4.27914C43.1596 4.35718 43.4 4.45136 43.6347 4.56168C43.8735 4.6719 44.085 4.8148 44.2693 4.99036C44.4577 5.16583 44.611 5.38217 44.7293 5.63936C44.8475 5.89256 44.911 6.20111 44.9199 6.565C44.9297 6.96888 44.8689 7.34847 44.7375 7.70378C44.6061 8.05908 44.4097 8.37195 44.1482 8.64239C43.8906 8.90874 43.5677 9.12266 43.1795 9.28416C42.7952 9.44155 42.3551 9.52629 41.8593 9.53836C41.5874 9.54497 41.3088 9.52375 41.0235 9.47467C40.7422 9.4255 40.4684 9.35415 40.202 9.2606C39.9356 9.16305 39.6847 9.04712 39.4494 8.91281C39.214 8.7785 39.0083 8.62746 38.8322 8.4597L39.4089 7.49738C39.4552 7.42823 39.5159 7.37074 39.5908 7.3249C39.6696 7.27497 39.755 7.24888 39.8469 7.24664C39.9669 7.24372 40.0878 7.27879 40.2096 7.35185C40.3354 7.42481 40.4754 7.50543 40.6296 7.5937C40.7878 7.68188 40.9678 7.76152 41.1696 7.83263C41.3714 7.90374 41.6082 7.93599 41.8802 7.92937C42.248 7.92042 42.532 7.83348 42.7321 7.66856C42.932 7.49965 43.0277 7.23924 43.0191 6.88735C43.0142 6.68341 42.9541 6.51882 42.8391 6.39358C42.724 6.26835 42.5734 6.16598 42.3875 6.08648C42.2055 6.00689 41.9977 5.93792 41.7642 5.87958C41.5307 5.82125 41.2911 5.75706 41.0453 5.68702C40.7995 5.61298 40.5592 5.5228 40.3245 5.41648C40.0898 5.30616 39.8782 5.16127 39.6898 4.9818C39.5053 4.79823 39.3537 4.56985 39.235 4.29666C39.1162 4.01947 39.0518 3.67693 39.0419 3.26905C39.0339 2.94115 39.0921 2.61964 39.2165 2.30452C39.3409 1.9894 39.528 1.70676 39.778 1.45661C40.028 1.20645 40.3372 1.00487 40.7056 0.851856C41.0739 0.694848 41.4979 0.610504 41.9778 0.598824C42.2457 0.592303 42.5062 0.60797 42.7592 0.645825C43.0161 0.679584 43.2595 0.735677 43.4895 0.814103C43.7194 0.888532 43.9337 0.981345 44.1325 1.09254C44.3351 1.19964 44.5162 1.32327 44.6756 1.46343L44.1947 2.41742ZM51.0162 5.87645L50.1482 3.50287C50.0845 3.35238 50.0162 3.17599 49.9433 2.9737C49.8702 2.76742 49.7968 2.54514 49.723 2.30687C49.6689 2.55225 49.6104 2.77974 49.5475 2.98934C49.4846 3.19893 49.425 3.38043 49.3687 3.53385L48.6229 5.93471L51.0162 5.87645ZM54.3186 9.13906L52.747 9.17731C52.5711 9.1816 52.4282 9.14506 52.3183 9.06772C52.2082 8.98637 52.1237 8.8824 52.0646 8.7558L51.5117 7.2448L48.1886 7.32569L47.7099 8.86179C47.6686 8.97483 47.5911 9.07875 47.4774 9.17354C47.3676 9.26424 47.2287 9.31163 47.0607 9.31572L45.4772 9.35427L48.6475 0.53251L50.7229 0.481995L54.3186 9.13906Z" fill="#143F7E"/>
</svg>
