<svg width="24" height="24" viewBox="0 0 24 24" fill="none" xmlns="http://www.w3.org/2000/svg">
<path d="M9.71428 18.8287C9.88829 18.9775 9.98828 19.1926 9.98828 19.4215V20.3713C9.98828 20.6237 9.69857 20.7664 9.49847 20.6124C9.42279 20.5542 7.6221 19.1619 5.79608 17.1655C3.27716 14.4114 2 11.9391 2 9.81771V9.60744C2 5.41268 5.58353 2 9.98828 2C14.1793 2 17.6269 5.08953 17.9516 9.00265C17.9886 9.4487 17.8711 9.70728 17.2381 9.7093C16.6051 9.71132 16.3864 9.00265 16.3864 9.00265C16.0665 5.90922 13.3193 3.48438 9.98828 3.48438C6.44305 3.48438 3.55869 6.23123 3.55869 9.60744V9.81771C3.55869 13.2148 7.91396 17.2897 9.71428 18.8287ZM9.98828 6.45312C11.8146 6.45312 13.3005 7.86819 13.3005 9.60744C13.3005 11.3467 11.8146 12.7618 9.98828 12.7618C8.16196 12.7618 6.67606 11.3467 6.67606 9.60744C6.67606 7.86819 8.16196 6.45312 9.98828 6.45312ZM9.98828 7.9375C9.02133 7.9375 8.23474 8.68659 8.23474 9.60744C8.23474 10.5281 9.02133 11.2774 9.98828 11.2774C10.9551 11.2774 11.7418 10.5281 11.7418 9.60744C11.7418 8.68659 10.9551 7.9375 9.98828 7.9375ZM21.3512 16.5662C21.1263 16.801 20.7568 16.8179 20.5114 16.6047V18.9877C20.5114 20.0973 19.5633 21 18.3982 21H13.4633C12.2982 21 11.3501 20.0973 11.3501 18.9877V16.6047C11.1047 16.8179 10.7352 16.801 10.5103 16.5662L10.4122 16.4638C10.1125 16.1509 10.1354 15.6509 10.4625 15.3667L15.9307 10.6159L21.399 15.3668C21.7261 15.6509 21.749 16.1509 21.4493 16.4638L21.3512 16.5662ZM18.9527 15.2505L15.9307 12.6252L12.9088 15.2505V18.9876C12.9088 19.2788 13.1575 19.5156 13.4633 19.5156H18.3982C18.7039 19.5156 18.9527 19.2788 18.9527 18.9876V15.2505Z" fill="#0066FF"/>
</svg>
