<svg width="30" height="30" viewBox="0 0 30 30" fill="none" xmlns="http://www.w3.org/2000/svg">
<path d="M28.0229 1.7339C27.5735 1.45303 27.0679 1.34068 26.45 1.39686C25.3827 1.56538 24.4839 1.9586 23.6413 2.57652C22.911 3.13827 22.0684 3.81237 21.1134 4.59881C20.664 4.99204 20.2146 5.38526 19.7652 5.77848C19.4843 6.05936 19.2035 6.28405 18.9226 6.56493C18.6417 6.78963 18.417 6.90198 18.08 6.8458C17.9114 6.78963 17.6867 6.73345 17.462 6.67728L6.95738 2.74505C6.62033 2.6327 6.28328 2.52035 5.89006 2.408C5.10361 2.1833 4.54187 2.408 4.20482 2.68887C3.5869 3.13827 3.08133 3.70002 2.74428 4.31794C2.35105 4.93586 2.4634 5.60996 3.02515 6.11553C3.24985 6.34023 3.47455 6.50875 3.64307 6.6211C5.55301 7.9693 7.51913 9.26131 9.42907 10.6095C10.1593 11.1151 10.8334 11.5645 11.339 12.1824C11.4514 12.3509 11.5637 12.4633 11.6761 12.6318L8.0247 16.1146C7.63147 16.5078 7.23825 16.8449 6.84503 17.2381C6.78885 17.2381 6.73268 17.1819 6.67651 17.1819L6.05858 16.9011C5.55301 16.6764 5.10361 16.3955 4.59804 16.1708C3.98012 15.8899 3.30602 15.9461 2.80045 16.3955C2.51958 16.6202 2.23871 16.9011 1.95783 17.1819C1.45226 17.6875 1.39608 18.3054 1.84548 18.8672C1.95783 19.0357 2.07018 19.1481 2.18253 19.2604L3.24985 20.6086C4.48569 22.2377 5.77771 23.8667 7.06973 25.4396C7.23825 25.6643 7.40678 25.8328 7.63147 25.9452C7.85617 26.0575 8.30557 26.3384 8.86732 26.1699C9.54142 25.9452 10.047 25.4958 10.2717 24.8217C10.4964 24.26 10.5526 23.642 10.3279 22.9679L10.2155 22.4624C10.1032 22.013 9.99081 21.5636 9.87846 21.1142C11.3952 19.9345 12.9119 18.811 14.3724 17.6313L15.1027 17.0696L15.2712 17.3505C15.6645 17.9684 16.0015 18.5863 16.2262 19.2604L18.8102 25.889C18.9788 26.2822 19.0911 26.6755 19.2596 27.0125C19.5405 27.6304 19.9899 27.9675 20.5517 27.9675C20.7764 27.9675 21.0011 27.9113 21.2257 27.799C21.3943 27.7428 21.5628 27.6866 21.6751 27.5743C22.5739 27.1249 23.1357 26.5069 23.3604 25.6643C23.5289 24.9902 23.4727 24.3723 23.4166 23.9229L22.0684 14.0923C21.956 13.3059 21.8437 12.4633 21.7313 11.6768C21.6751 11.2836 21.7875 11.0589 22.0684 10.8342L23.248 9.82306C24.203 9.03661 25.1018 8.25017 26.0568 7.46372C26.8432 6.78963 27.3488 6.1717 27.7982 5.49761C28.1352 4.99204 28.4723 4.37411 28.6408 3.70002C28.9217 2.96975 28.6408 2.1833 28.0229 1.7339ZM27.5735 3.47532C27.405 4.03707 27.1241 4.54264 26.8432 4.99204C26.5062 5.55378 26.0006 6.11553 25.3265 6.67728C24.4277 7.46372 23.4727 8.25017 22.5178 9.03661L21.3943 9.99158C20.7764 10.441 20.4955 11.1151 20.6078 11.9015C20.7202 12.688 20.8325 13.4744 20.9449 14.317L22.2931 24.1476C22.3492 24.7094 22.3492 25.1026 22.2369 25.4396C22.0684 25.9452 21.7313 26.3384 21.1696 26.6193C21.0572 26.6755 20.9449 26.7316 20.7764 26.7878C20.4393 26.9002 20.327 26.844 20.2146 26.5631C20.0461 26.2261 19.9337 25.8328 19.7652 25.4396L17.2935 18.811C17.0126 18.0807 16.6194 17.4066 16.2262 16.7325L15.8892 16.1708L15.3836 15.4405L13.6422 16.7325C12.0693 17.9122 10.4964 19.1481 8.97967 20.3277C8.58645 20.6086 8.64262 20.9457 8.6988 21.1703C8.81114 21.6759 8.97967 22.1815 9.09202 22.6871L9.20437 23.1926C9.31672 23.642 9.31672 24.0353 9.14819 24.3723C8.97967 24.7094 8.75497 24.9341 8.36175 25.0464C8.36175 25.0464 8.2494 25.0464 8.08087 24.9341C7.96852 24.8779 7.85617 24.7655 7.8 24.6532C6.50798 23.0241 5.27214 21.4512 4.0363 19.8222L2.96898 18.474C2.85663 18.3616 2.80045 18.2493 2.6881 18.0807C2.63193 18.0246 2.63193 17.9684 2.63193 17.9684C2.63193 17.9684 2.6881 17.9122 2.74428 17.856C2.96898 17.6313 3.24985 17.3505 3.47455 17.1819C3.64307 17.0134 3.86777 17.0134 4.09247 17.1258C4.59804 17.3505 5.04744 17.5752 5.55301 17.856L6.17093 18.1369C6.28328 18.1931 6.39563 18.2493 6.50798 18.3054C6.78886 18.474 7.1259 18.4178 7.40678 18.1931C7.85617 17.7437 8.30557 17.3505 8.75497 16.9011L12.631 13.2497L13.0804 12.8003L12.7995 12.4071C12.7434 12.2947 12.6872 12.2386 12.631 12.1262C12.4625 11.9015 12.3501 11.6768 12.1816 11.5083C11.5637 10.778 10.8334 10.2163 10.047 9.71071C8.13705 8.41869 6.17093 7.0705 4.26099 5.72231C4.09247 5.60996 3.92395 5.49761 3.75542 5.32908C3.5869 5.16056 3.5869 5.10439 3.69925 4.99204C3.98012 4.48646 4.42952 4.03707 4.93509 3.64384C5.04744 3.53149 5.21596 3.47532 5.60919 3.58767C6.00241 3.70002 6.33946 3.81237 6.62033 3.92472L17.125 7.85695C17.4059 7.9693 17.6867 8.02547 17.9114 8.08164C18.5294 8.19399 19.1473 8.02547 19.6529 7.57607C19.9337 7.2952 20.2146 7.0705 20.4955 6.78963C20.9449 6.3964 21.3943 6.00318 21.8437 5.60996C22.7986 4.82351 23.5851 4.14942 24.3154 3.58767C24.9895 3.0821 25.7759 2.74505 26.6185 2.6327C26.8994 2.57652 27.1241 2.6327 27.3488 2.74505C27.5735 2.80122 27.6858 3.13827 27.5735 3.47532Z" fill="#0066FF" stroke="#0066FF" stroke-width="0.5"/>
</svg>
