<svg width="28" height="30" viewBox="0 0 28 30" fill="none" xmlns="http://www.w3.org/2000/svg">
<path d="M13.2088 1.34085L2.20875 6.07931C1.47521 6.3953 1 7.11742 1 7.91613V22.6464C1 23.4751 1.51098 24.2179 2.28482 24.5142L13.2848 28.7262C13.7453 28.9025 14.2547 28.9025 14.7152 28.7262L25.7152 24.5142C26.489 24.2179 27 23.4751 27 22.6464V7.91613C27 7.11742 26.5248 6.39529 25.7912 6.07931L14.7912 1.34085C14.2862 1.12328 13.7138 1.12328 13.2088 1.34085Z" stroke="#0066FF" stroke-width="1.7"/>
<path d="M1 7L14 12.5M14 12.5L27 7M14 12.5V29" stroke="#0066FF" stroke-width="1.7"/>
<path d="M19 3.5L7 9.31579V15" stroke="#0066FF" stroke-width="1.7" stroke-linecap="round"/>
</svg>
