<svg width="24" height="24" viewBox="0 0 24 24" fill="none" xmlns="http://www.w3.org/2000/svg">
<path d="M11.2572 2.79711L3.25722 5.99711C2.4979 6.30084 2 7.03626 2 7.85406V17.5329C2 18.3792 2.53262 19.1338 3.32998 19.4173L11.33 22.2618C11.7634 22.4159 12.2366 22.4159 12.67 22.2618L20.67 19.4173C21.4674 19.1338 22 18.3792 22 17.5329V7.85407C22 7.03626 21.5021 6.30084 20.7428 5.99711L12.7428 2.79711C12.266 2.60638 11.734 2.60638 11.2572 2.79711Z" stroke="#133B77" stroke-width="1.43"/>
<path d="M2 6.49854L12 10.4985M12 10.4985L22 6.49854M12 10.4985V22.4985" stroke="#133B77" stroke-width="1.43"/>
<path d="M16.2857 4.27783L6.7619 8.72228V12.7223" stroke="#133B77" stroke-width="1.43" stroke-linecap="round"/>
</svg>
