<svg width="22" height="17" viewBox="0 0 22 17" fill="none" xmlns="http://www.w3.org/2000/svg">
<path d="M19.375 0H2.625C1.17759 0 0 1.17759 0 2.625V13.875C0 15.3224 1.17759 16.5 2.625 16.5H19.375C20.8224 16.5 22 15.3224 22 13.875V2.625C22 1.17759 20.8224 0 19.375 0ZM2.625 1.5H19.375C19.9953 1.5 20.5 2.0047 20.5 2.625V4.125H1.5V2.625C1.5 2.0047 2.0047 1.5 2.625 1.5ZM19.375 15H2.625C2.0047 15 1.5 14.4953 1.5 13.875V5.625H20.5V13.875C20.5 14.4953 19.9953 15 19.375 15Z" fill="#A7B0C0"/>
<path d="M5.25 12.75H4.5C4.08581 12.75 3.75 12.4142 3.75 12V11.25C3.75 10.8358 4.08581 10.5 4.5 10.5H5.25C5.66419 10.5 6 10.8358 6 11.25V12C6 12.4142 5.66419 12.75 5.25 12.75Z" fill="#A7B0C0"/>
</svg>
