<svg width="24" height="24" viewBox="0 0 24 24" fill="none" xmlns="http://www.w3.org/2000/svg">
<path d="M20.375 3.75H3.625C2.17759 3.75 1 4.92759 1 6.375V17.625C1 19.0724 2.17759 20.25 3.625 20.25H20.375C21.8224 20.25 23 19.0724 23 17.625V6.375C23 4.92759 21.8224 3.75 20.375 3.75ZM3.625 5.25H20.375C20.9953 5.25 21.5 5.7547 21.5 6.375V7.875H2.5V6.375C2.5 5.7547 3.0047 5.25 3.625 5.25ZM20.375 18.75H3.625C3.0047 18.75 2.5 18.2453 2.5 17.625V9.375H21.5V17.625C21.5 18.2453 20.9953 18.75 20.375 18.75Z" fill="#0066FF"/>
<path d="M6.25 16.5H5.5C5.08581 16.5 4.75 16.1642 4.75 15.75V15C4.75 14.5858 5.08581 14.25 5.5 14.25H6.25C6.66419 14.25 7 14.5858 7 15V15.75C7 16.1642 6.66419 16.5 6.25 16.5Z" fill="#0066FF"/>
</svg>
