<svg width="24" height="24" viewBox="0 0 24 24" fill="none" xmlns="http://www.w3.org/2000/svg">
<g clip-path="url(#clip0_450_2469)">
<path d="M13.6976 17.6773C17.7467 17.6187 20.9921 14.2768 20.9323 10.2278C20.8724 6.17872 17.5296 2.9323 13.4804 2.9909C9.43138 3.04951 6.18594 6.39133 6.24583 10.4404C6.27118 12.1543 6.88487 13.7243 7.89117 14.9607L6.1785 16.7243L4.93871 15.5202C4.59634 15.1877 4.04935 15.1957 3.71697 15.5379C3.3846 15.8802 3.39266 16.4272 3.73503 16.7597L4.97483 17.9637L3.27946 19.7094C2.94712 20.0517 2.95518 20.5987 3.29758 20.9312C3.63995 21.2637 4.18694 21.2558 4.51932 20.9135L6.21468 19.1678L7.45451 20.3719C7.79688 20.7044 8.34387 20.6964 8.67624 20.3542C9.00862 20.0119 9.00056 19.4649 8.65819 19.1324L7.41836 17.9284L9.131 16.1649C10.3965 17.1346 11.9837 17.7021 13.6976 17.6773ZM7.97367 10.4154C7.92788 7.31902 10.4097 4.76352 13.506 4.7187C16.6023 4.67392 19.1586 7.15636 19.2045 10.2528C19.2503 13.3491 16.7685 15.9046 13.6721 15.9495C10.5758 15.9942 8.01949 13.5117 7.97367 10.4154Z" fill="#EEF1F5"/>
</g>
<defs>
<clipPath id="clip0_450_2469">
<rect width="24" height="24" fill="white"/>
</clipPath>
</defs>
</svg>
