<svg width="24" height="24" viewBox="0 0 24 24" fill="none" xmlns="http://www.w3.org/2000/svg">
<path fill-rule="evenodd" clip-rule="evenodd" d="M12 18.5C15.5899 18.5 18.5 15.5899 18.5 12C18.5 8.41015 15.5899 5.5 12 5.5C8.41015 5.5 5.5 8.41015 5.5 12C5.5 15.5899 8.41015 18.5 12 18.5ZM12 20C16.4183 20 20 16.4183 20 12C20 7.58172 16.4183 4 12 4C7.58172 4 4 7.58172 4 12C4 16.4183 7.58172 20 12 20Z" fill="#0066FF"/>
<rect x="11.5" y="17.5" width="1" height="4" rx="0.5" fill="#C4C4C4" stroke="#0066FF" stroke-linecap="round" stroke-linejoin="round"/>
<rect x="17.5" y="12.5" width="1" height="4" rx="0.5" transform="rotate(-90 17.5 12.5)" fill="#C4C4C4" stroke="#0066FF" stroke-linecap="round"/>
<rect x="11.5" y="2.5" width="1" height="4" rx="0.5" fill="#C4C4C4" stroke="#0066FF" stroke-linecap="round" stroke-linejoin="round"/>
<rect x="2.5" y="12.5" width="1" height="4" rx="0.5" transform="rotate(-90 2.5 12.5)" fill="#C4C4C4" stroke="#0066FF" stroke-linecap="round" stroke-linejoin="round"/>
</svg>
