<svg width="285" height="125" viewBox="0 0 285 125" fill="none" xmlns="http://www.w3.org/2000/svg">
<path d="M239.148 123.152V0.842773L235.504 0.842773V123.152H239.148Z" fill="#E8E8E8"/>
<path d="M51 123L51 1L48 1L48 123H51Z" fill="#E8E8E8"/>
<path d="M236.742 10.73H49.3545V14.3744H236.742V10.73Z" fill="#E8E8E8"/>
<path d="M226.297 9.03174H58.7168L59.2546 18.019H226.835L226.297 9.03174Z" fill="#F0F0F0"/>
<path d="M167.377 84.8495C164.228 95.4007 168.92 106.865 166.917 117.685C166.583 119.938 165.733 116.822 164.433 118.693C161.85 122.154 122.243 122.048 119.66 118.587C118.362 116.715 117.513 119.831 117.176 117.579C115.173 106.751 119.865 95.2875 116.716 84.7434C116.134 83.1921 115.705 81.5875 115.435 79.9525C115.053 75.9614 117.558 72.2886 120.389 69.4438C123.219 66.5991 126.503 64.0727 128.357 60.5274C129.234 58.8573 129.772 56.9891 130.614 55.3402C131.487 53.6464 132.69 52.1448 134.153 50.9245C136.239 49.2122 138.856 48.2768 141.555 48.2778H141.626L142.496 48.3203H142.807C145.172 48.3857 147.46 49.1762 149.36 50.5848C151.081 51.8853 152.486 53.5566 153.472 55.4747C154.328 57.1448 154.887 59.013 155.729 60.6548C157.583 64.193 160.881 66.7264 163.697 69.5712C166.514 72.416 169.04 76.0958 168.651 80.087C168.379 81.7115 167.953 83.3062 167.377 84.8495Z" fill="#407BFF"/>
<path opacity="0.7" d="M167.377 84.8495C164.228 95.4007 168.92 106.865 166.917 117.685C166.583 119.938 165.733 116.822 164.433 118.693C161.85 122.154 122.243 122.048 119.66 118.587C118.362 116.715 117.513 119.831 117.176 117.579C115.173 106.751 119.865 95.2875 116.716 84.7434C116.134 83.1921 115.705 81.5875 115.435 79.9525C115.053 75.9614 117.558 72.2886 120.389 69.4438C123.219 66.5991 126.503 64.0727 128.357 60.5274C129.234 58.8573 129.772 56.9891 130.614 55.3402C131.487 53.6464 132.69 52.1448 134.153 50.9245C136.239 49.2122 138.856 48.2768 141.555 48.2778H141.626L142.496 48.3203H142.807C145.172 48.3857 147.46 49.1762 149.36 50.5848C151.081 51.8853 152.486 53.5566 153.472 55.4747C154.328 57.1448 154.887 59.013 155.729 60.6548C157.583 64.193 160.881 66.7264 163.697 69.5712C166.514 72.416 169.04 76.0958 168.651 80.087C168.379 81.7115 167.953 83.3062 167.377 84.8495Z" fill="white"/>
<path d="M141.181 48.2422L141.103 48.2493V48.2422H141.181Z" fill="#407BFF"/>
<path opacity="0.4" d="M157.413 120.908C155.736 119.224 128.4 119.224 126.715 120.908C125.031 122.593 127.685 114.847 126.715 91.7846C125.746 68.7221 133.282 64.6177 133.282 64.6177H150.854C150.854 64.6177 158.369 68.7221 157.413 91.7846C156.458 114.847 159.091 122.585 157.413 120.908Z" fill="black"/>
<path d="M134.62 67.6323C133.863 68.6372 132.993 70.1162 133.368 71.2484H140.161L141.103 64.6177H135.894V64.7875C135.709 65.8259 135.272 66.8028 134.62 67.6323Z" fill="white"/>
<path d="M150.5 67.6323C151.257 68.6372 152.134 70.1162 151.752 71.2484H144.902L144.018 64.6177H149.226V64.7875C149.411 65.8259 149.848 66.8028 150.5 67.6323Z" fill="white"/>
<path d="M157.393 57.4773C157.06 59.296 156.621 62.5017 157.095 65.0563C157.506 67.2218 152.234 67.1793 147.641 66.7547C143.934 66.408 140.203 66.408 136.495 66.7547C131.91 67.1864 126.624 67.2218 127.034 65.0563C127.515 62.5017 127.077 59.296 126.744 57.4773C126.713 57.3043 126.72 57.1266 126.765 56.9567C126.81 56.7868 126.892 56.6289 127.005 56.494C127.117 56.359 127.258 56.2505 127.417 56.1758C127.576 56.1012 127.75 56.0624 127.926 56.062H156.232C156.406 56.0654 156.577 56.1065 156.734 56.1825C156.89 56.2584 157.028 56.3674 157.139 56.502C157.249 56.6365 157.329 56.7934 157.373 56.9618C157.417 57.1302 157.423 57.3061 157.393 57.4773Z" fill="#407BFF"/>
<path opacity="0.5" d="M157.393 57.4773C157.06 59.296 156.621 62.5017 157.095 65.0563C157.506 67.2218 152.234 67.1793 147.641 66.7547C143.934 66.408 140.203 66.408 136.495 66.7547C131.91 67.1864 126.624 67.2218 127.034 65.0563C127.515 62.5017 127.077 59.296 126.744 57.4773C126.713 57.3043 126.72 57.1266 126.765 56.9567C126.81 56.7868 126.892 56.6289 127.005 56.494C127.117 56.359 127.258 56.2505 127.417 56.1758C127.576 56.1012 127.75 56.0624 127.926 56.062H156.232C156.406 56.0654 156.577 56.1065 156.734 56.1825C156.89 56.2584 157.028 56.3674 157.139 56.502C157.249 56.6365 157.329 56.7934 157.373 56.9618C157.417 57.1302 157.423 57.3061 157.393 57.4773Z" fill="white"/>
<path d="M134.358 57.8738C134.103 58.1425 133.924 58.4749 133.841 58.8362C133.802 59.0177 133.823 59.2069 133.901 59.3754C133.979 59.5439 134.11 59.6825 134.273 59.7704C134.46 59.8236 134.657 59.8247 134.844 59.7736C135.031 59.7224 135.201 59.621 135.335 59.4802C136.311 58.6593 136.594 57.2865 136.814 56.0269C136.814 56.0269 135.667 56.6284 135.575 56.7345C135.129 57.0688 134.721 57.4508 134.358 57.8738Z" fill="#263238"/>
<path d="M151.391 80.6533C143.02 79.6767 137.146 79.8961 128.746 80.8797H128.619C128.09 80.9689 127.584 81.1613 127.13 81.4461C126.675 81.7309 126.281 82.1024 125.971 82.5394C125.66 82.9764 125.438 83.4703 125.318 83.993C125.198 84.5157 125.183 85.0568 125.272 85.5856C127.644 99.9823 128.747 106.667 128.569 121.257L158.935 120.691C159.147 106.46 160.35 92.6834 159.303 86.0598C160.796 82.5639 154.321 81.1486 151.391 80.6533Z" fill="#407BFF"/>
<path opacity="0.4" d="M151.391 72.7612C143.02 71.7846 137.146 72.004 128.746 72.9876H128.619C128.09 73.0768 127.584 73.2693 127.13 73.554C126.675 73.8388 126.281 74.2103 125.971 74.6473C125.66 75.0843 125.438 75.5782 125.318 76.1009C125.198 76.6236 125.183 77.1648 125.272 77.6935C127.644 92.0902 128.747 106.667 128.569 121.257L158.935 120.691C159.147 106.46 160.35 84.7913 159.303 78.1677C160.796 74.6718 154.321 73.2565 151.391 72.7612Z" fill="black"/>
<path d="M150.451 84.1843C150.451 86.6823 151.349 88.7062 152.453 88.7062C153.557 88.7062 154.449 86.6823 154.449 84.1843C154.449 81.6863 153.557 79.6694 152.453 79.6694C151.349 79.6694 150.451 81.6933 150.451 84.1843Z" fill="#263238"/>
<path d="M132.349 81.9906C132.271 81.8137 130.629 77.5465 132.972 74.263C134.755 71.7508 138.307 70.5973 143.516 70.8238C147.691 71.0148 150.529 72.1259 151.944 74.1427C153.642 76.5558 152.758 79.4147 152.425 80.5116L152.39 80.6389L150.734 80.1224L150.776 79.9879C151.066 79.0538 151.739 76.8601 150.536 75.1405C149.439 73.5907 147.054 72.7203 143.459 72.5646C138.873 72.3594 135.823 73.2723 134.394 75.2749C132.597 77.8012 133.962 81.3254 133.976 81.3608L132.349 81.9906Z" fill="#263238"/>
<path d="M148.214 84.1843C148.214 87.4466 149.382 90.0862 150.825 90.0862C152.269 90.0862 153.436 87.4466 153.436 84.1843C153.436 80.922 152.269 78.2896 150.825 78.2896C149.382 78.2896 148.214 80.9291 148.214 84.1843Z" fill="#263238"/>
<path d="M137.366 84.1843C137.366 87.4466 136.198 90.0862 134.755 90.0862C133.311 90.0862 132.15 87.4466 132.15 84.1843C132.15 80.922 133.318 78.2896 134.755 78.2896C136.191 78.2896 137.366 80.9291 137.366 84.1843Z" fill="#263238"/>
<path d="M137.366 84.1843C137.366 87.4466 136.198 90.0862 134.755 90.0862C133.311 90.0862 132.15 87.4466 132.15 84.1843C132.15 80.922 133.318 78.2896 134.755 78.2896C136.191 78.2896 137.366 80.9291 137.366 84.1843Z" fill="#263238"/>
<path d="M135.165 84.1843C135.165 86.6823 134.266 88.7062 133.162 88.7062C132.058 88.7062 131.16 86.6823 131.16 84.1843C131.16 81.6863 132.058 79.6694 133.162 79.6694C134.266 79.6694 135.165 81.6933 135.165 84.1843Z" fill="#263238"/>
<path d="M135.165 84.1843C135.165 86.6823 134.266 88.7062 133.162 88.7062C132.058 88.7062 131.16 86.6823 131.16 84.1843C131.16 81.6863 132.058 79.6694 133.162 79.6694C134.266 79.6694 135.165 81.6933 135.165 84.1843Z" fill="#263238"/>
<g opacity="0.5">
<path opacity="0.5" d="M135.165 84.1843C135.165 86.6823 134.266 88.7062 133.162 88.7062C132.058 88.7062 131.16 86.6823 131.16 84.1843C131.16 81.6863 132.058 79.6694 133.162 79.6694C134.266 79.6694 135.165 81.6933 135.165 84.1843Z" fill="white"/>
<path opacity="0.5" d="M135.165 84.1843C135.165 86.6823 134.266 88.7062 133.162 88.7062C132.058 88.7062 131.16 86.6823 131.16 84.1843C131.16 81.6863 132.058 79.6694 133.162 79.6694C134.266 79.6694 135.165 81.6933 135.165 84.1843Z" fill="white"/>
</g>
<path d="M150.451 84.1843C150.451 86.6823 151.349 88.7062 152.453 88.7062C153.557 88.7062 154.449 86.6823 154.449 84.1843C154.449 81.6863 153.557 79.6694 152.453 79.6694C151.349 79.6694 150.451 81.6933 150.451 84.1843Z" fill="#263238"/>
<path opacity="0.5" d="M150.451 84.1843C150.451 86.6823 151.349 88.7062 152.453 88.7062C153.557 88.7062 154.449 86.6823 154.449 84.1843C154.449 81.6863 153.557 79.6694 152.453 79.6694C151.349 79.6694 150.451 81.6933 150.451 84.1843Z" fill="white"/>
<path d="M136.757 80.2779C136.474 80.6529 139.687 85.3659 145.383 85.3659C149.261 85.3659 147.683 80.3345 147.683 80.3345C144.853 79.2518 144.428 77.2632 144.654 74.935C144.712 74.2821 144.816 73.6341 144.966 72.9961L140.147 68.9978L136.608 66.0469C137.535 70.0381 139 77.0651 136.757 80.2779Z" fill="#F9BBB2"/>
<path opacity="0.2" d="M140.26 70.4414C140.216 71.0555 140.24 71.6724 140.331 72.2813C140.557 74.1141 142.949 76.0177 144.747 76.3787C144.808 75.7262 144.912 75.0785 145.058 74.4397L140.26 70.4414Z" fill="black"/>
<path d="M135.363 57.4776C135.941 55.5461 137.262 53.9229 139.036 52.9649C140.81 52.0069 142.892 51.7923 144.824 52.3684C150.762 53.9677 152.842 62.318 152.403 67.5759C152.314 68.9429 151.853 70.2594 151.069 71.3832C150.285 72.5069 149.21 73.3952 147.958 73.9518C146.706 74.5085 145.326 74.7124 143.967 74.5415C142.608 74.3707 141.321 73.8315 140.246 72.9824C136.913 70.4065 136.481 67.0451 135.257 61.4051C134.948 60.1092 134.985 58.755 135.363 57.4776Z" fill="#F9BBB2"/>
<path d="M148.221 67.3851C148.27 67.4714 148.345 67.5398 148.436 67.5805C148.526 67.6213 148.627 67.6322 148.724 67.6118C148.803 67.573 148.868 67.5121 148.912 67.4366C148.956 67.361 148.977 67.2741 148.972 67.1868C148.986 66.9867 148.934 66.7876 148.823 66.6202C148.746 66.5139 148.618 66.4148 148.498 66.4502C148.207 66.5352 148.087 67.1514 148.221 67.3851Z" fill="#263238"/>
<path d="M135.129 63.3296C136.601 62.9616 138.179 64.6529 138.809 65.9408C139.517 67.3561 139.036 68.8351 137.436 68.5521C136.202 68.311 135.098 67.6294 134.33 66.6343C133.389 65.3676 133.657 63.6975 135.129 63.3296Z" fill="#F9BBB2"/>
<path d="M144.641 60.7751C144.952 60.6973 145.263 61.044 145.348 61.4828C145.433 61.9215 145.221 62.3532 144.924 62.3886C144.626 62.424 144.315 62.0772 144.216 61.6102C144.117 61.1431 144.329 60.8459 144.641 60.7751Z" fill="#263238"/>
<path d="M150.344 59.9331C150.62 59.9331 150.896 60.2091 150.96 60.6408C151.024 61.0724 150.847 61.3838 150.578 61.4475C150.309 61.5112 150.033 61.2069 149.969 60.7894C149.906 60.3718 150.068 59.9685 150.344 59.9331Z" fill="#263238"/>
<path d="M148.908 65.2613C149.235 65.3316 149.574 65.3281 149.9 65.251C150.225 65.1739 150.53 65.0251 150.79 64.8155C149.907 63.8199 149.164 62.708 148.583 61.5107L148.908 65.2613Z" fill="#ED847E"/>
<path d="M143.551 60.3719C143.703 60.0664 143.926 59.802 144.202 59.6012C144.478 59.4004 144.799 59.2691 145.136 59.2184C145.176 59.2209 145.215 59.2149 145.252 59.2008C145.289 59.1867 145.322 59.1648 145.35 59.1366C145.378 59.1085 145.399 59.0747 145.413 59.0376C145.426 59.0005 145.432 58.9609 145.428 58.9215C145.425 58.8822 145.414 58.8439 145.395 58.8093C145.376 58.7748 145.349 58.7447 145.318 58.7212C145.286 58.6977 145.249 58.6813 145.211 58.673C145.172 58.6648 145.132 58.665 145.094 58.6735C144.666 58.7253 144.258 58.8815 143.905 59.1284C143.552 59.3752 143.265 59.705 143.07 60.0888C143.033 60.1499 143.023 60.2229 143.04 60.2918C143.057 60.3608 143.101 60.4201 143.162 60.4568C143.203 60.4699 143.248 60.4699 143.289 60.4568C143.336 60.4668 143.385 60.4642 143.431 60.4493C143.477 60.4344 143.519 60.4077 143.551 60.3719Z" fill="#263238"/>
<path d="M151.377 59.31C151.403 59.285 151.423 59.2553 151.436 59.2225C151.45 59.1897 151.457 59.1545 151.457 59.119C151.457 59.0834 151.45 59.0483 151.436 59.0155C151.423 58.9827 151.403 58.9529 151.377 58.9279C151.063 58.6184 150.68 58.3868 150.26 58.2517C149.839 58.1165 149.393 58.0815 148.957 58.1495C148.922 58.157 148.889 58.1714 148.86 58.1919C148.83 58.2125 148.805 58.2387 148.786 58.269C148.767 58.2993 148.754 58.3332 148.748 58.3685C148.742 58.4039 148.744 58.4401 148.752 58.475C148.769 58.5452 148.812 58.6064 148.873 58.6458C148.933 58.6853 149.006 58.7001 149.078 58.6873C149.429 58.6369 149.786 58.6688 150.123 58.7806C150.459 58.8923 150.765 59.0809 151.016 59.3313C151.05 59.3606 151.09 59.3816 151.133 59.3927C151.176 59.4037 151.221 59.4045 151.264 59.395C151.309 59.377 151.348 59.3477 151.377 59.31Z" fill="#263238"/>
<path d="M140.253 57.4347C140.252 57.3484 140.232 57.2634 140.194 57.1861C140.156 57.1087 140.1 57.041 140.032 56.9879C139.964 56.9349 139.885 56.8979 139.801 56.8796C139.717 56.8614 139.629 56.8625 139.545 56.8827L135.766 57.095C135.283 57.1258 134.818 57.2921 134.425 57.575C134.032 57.8579 133.727 58.2458 133.544 58.6943C131.584 63.4427 132.886 66.9456 133.736 68.2406C139.397 76.8103 138.583 70.2362 137.84 68.6439C136.276 68.276 135.335 67.6886 134.953 66.3299C134.712 65.4453 134.663 64.2069 135.342 63.6196C135.619 63.3881 135.954 63.2372 136.311 63.1835C136.668 63.1299 137.033 63.1754 137.366 63.3153C137.281 65.1764 138.073 66.3865 139.206 67.9929C139.206 67.9929 137.861 62.4449 139.361 61.7301C140.225 61.3126 140.246 58.8075 140.253 57.4347Z" fill="#263238"/>
<path d="M136.007 52.8776C135.471 53.3871 135.051 54.0059 134.775 54.6921C134.499 55.3783 134.374 56.1158 134.408 56.8546C134.413 57.0192 134.476 57.1769 134.585 57.3004C134.717 57.3999 134.88 57.4499 135.045 57.4419C137.897 57.626 140.758 57.6047 143.607 57.3782L141.704 56.154C143.027 56.8282 144.469 57.2346 145.95 57.3499C147.294 57.4632 148.78 57.3499 149.884 58.0576C150.988 58.7653 151.547 60.1806 152.007 61.4543C152.741 59.9329 153.146 58.274 153.196 56.5857C153.232 54.8895 152.656 53.237 151.576 51.9293C150.176 50.5322 148.307 49.705 146.332 49.6082C137.79 48.7732 136.007 52.8776 136.007 52.8776Z" fill="#263238"/>
<path d="M122.321 85.5359C121.783 87.0503 120.248 95.4431 130.304 107.268C131.132 108.238 134.613 110.141 137.755 106.914C141.541 103.015 142.454 86.0313 142.815 83.8022C143.176 81.573 143.565 79.0679 143.912 76.9167C140.154 77.3483 140.678 75.4377 139.85 74.2983C139.008 75.3669 135.151 95.2733 132.858 99.1442C132.929 96.5683 129.384 80.9928 127.537 81.2546C126.342 81.3742 125.209 81.8445 124.281 82.6063C123.353 83.3681 122.671 84.3874 122.321 85.5359Z" fill="#407BFF"/>
<path d="M133.835 96.9292C134.103 96.1791 134.323 95.3582 134.655 94.2047L131.917 92.57C131.828 92.5348 131.731 92.5268 131.638 92.547C131.545 92.5672 131.459 92.6146 131.393 92.6832L129.928 94.1906C129.593 94.5137 129.359 94.9268 129.254 95.3801C129.148 95.8333 129.176 96.3074 129.334 96.7452C129.47 97.1004 129.691 97.4171 129.977 97.6678C130.263 97.9186 130.606 98.0959 130.976 98.1844C131.346 98.2729 131.732 98.2699 132.101 98.1758C132.469 98.0816 132.809 97.8991 133.092 97.6439L133.87 96.9363L133.835 96.9292Z" fill="#F9BBB2"/>
<path d="M155.001 86.4346C154.831 87.0149 152.319 102.003 152.411 101.692C151.788 102.399 151.101 102.046 150.648 101.911C147.146 100.864 142.716 97.4811 139.213 96.4338C138.732 96.2923 138.13 96.172 137.797 96.5329C137.614 96.7684 137.51 97.0557 137.5 97.3538C137.373 98.3091 136.849 100.184 136.722 101.119C136.67 101.335 136.688 101.563 136.771 101.77C136.878 101.926 137.025 102.05 137.196 102.13C141.527 104.628 143.225 105.909 147.549 108.414C149.431 109.497 155.722 112.491 157.86 110.481C160.117 108.358 166.097 86.1799 157.76 82.5637C156.869 82.1816 156.437 81.5376 155.001 86.4346Z" fill="#407BFF"/>
<path d="M150.217 73.0459C150.182 73.1803 150.153 73.3148 150.132 73.4422C150.013 73.9966 149.702 74.4913 149.254 74.8394C148.806 75.1875 148.25 75.3668 147.684 75.3458H147.4C147.202 75.3882 145.433 76.2516 144.06 76.9168C143.396 77.2519 142.635 77.3426 141.911 77.1731C141.186 77.0036 140.544 76.5847 140.097 75.9898C139.876 75.4871 139.776 74.939 139.807 74.3904C139.807 74.2843 141.994 72.1118 143.346 70.7318C143.642 70.4362 144 70.2099 144.394 70.0692C144.788 69.9285 145.208 69.8769 145.624 69.918C146.332 69.9888 147.705 70.01 148.547 70.095C150.019 70.2153 150.514 71.6306 150.217 73.0459Z" fill="#E6A8A1"/>
<path d="M179.337 42.928C179.493 41.1022 177.999 39.9487 175.579 39.9487C174.485 39.9285 173.402 40.1674 172.418 40.6458C171.434 41.1242 170.578 41.8287 169.918 42.7015C167.554 41.2438 167.568 37.6276 170.074 36.4388C172.125 35.5038 174.359 35.0396 176.612 35.0801C182.189 35.0801 185.812 37.571 185.458 41.9585C184.934 47.9099 178.629 48.5822 178.282 52.5238H172.664C173.152 47.3155 179.054 46.1549 179.337 42.928ZM171.432 58.4964C171.532 57.557 171.987 56.6911 172.704 56.0756C173.421 55.4601 174.345 55.1414 175.289 55.1846C177.37 55.1846 178.735 56.5999 178.573 58.4964C178.468 59.4426 178.013 60.3152 177.296 60.9416C176.579 61.5679 175.653 61.9025 174.702 61.879C174.253 61.9096 173.803 61.8414 173.383 61.6792C172.963 61.517 172.584 61.2647 172.272 60.9402C171.961 60.6157 171.724 60.2268 171.579 59.8009C171.434 59.375 171.384 58.9225 171.432 58.4752V58.4964Z" fill="#407BFF"/>
<path d="M221.874 115.76H64.8735V123.183H221.874V115.76Z" fill="#263238"/>
<path opacity="0.2" d="M221.874 115.76H64.8735V123.183H221.874V115.76Z" fill="white"/>
<path d="M279.195 123.068V42.8237H277.001V123.068H279.195Z" fill="#263238"/>
<path d="M281.36 42.8237H274.842V51.7544H281.36V42.8237Z" fill="#263238"/>
<path opacity="0.3" d="M281.36 42.8237H274.842V51.7544H281.36V42.8237Z" fill="white"/>
<path d="M270.823 37.6225L280.956 33.5039C282.365 34.3341 283.477 35.5869 284.134 37.0846C284.746 38.6562 284.766 40.3964 284.19 41.9816L274.503 46.2276L270.823 37.6225Z" fill="#263238"/>
<path opacity="0.5" d="M270.823 37.6225L280.956 33.5039C282.365 34.3341 283.477 35.5869 284.134 37.0846C284.746 38.6562 284.766 40.3964 284.19 41.9816L274.503 46.2276L270.823 37.6225Z" fill="white"/>
<path d="M268.233 83.6769C268.233 83.6769 281.395 59.468 273.236 40.6019C270.813 34.9147 267.09 29.8744 262.368 25.8853C257.645 21.8963 252.053 19.0694 246.041 17.6313L245.821 17.7021L268.105 83.684L268.233 83.6769Z" fill="#263238"/>
<path d="M246.041 17.6313L231.301 22.3868L253.366 84.4554L268.233 83.6769L246.041 17.6313Z" fill="#263238"/>
<path opacity="0.8" d="M246.041 17.6313L231.301 22.3868L253.366 84.4554L268.233 83.6769L246.041 17.6313Z" fill="white"/>
<path d="M246.819 19.9521L234.888 23.8867L254.582 80.2586L266.789 79.3811L246.819 19.9521Z" fill="#407BFF"/>
<path d="M246.819 19.9521L234.888 23.8867L254.582 80.2586L266.789 79.3811L246.819 19.9521Z" fill="white"/>
<path d="M8.19336 124L8.19336 43H5.99964L5.99964 124H8.19336Z" fill="#263238"/>
<path d="M3.64704 51.7544H10.1646L10.1646 42.8238H3.64704L3.64704 51.7544Z" fill="#263238"/>
<path opacity="0.3" d="M3.64704 51.7544H10.1646L10.1646 42.8238H3.64704L3.64704 51.7544Z" fill="white"/>
<path d="M14.17 37.6225L4.04343 33.5039C2.63447 34.3341 1.52275 35.5869 0.86605 37.0846C0.254217 38.6562 0.234099 40.3964 0.809439 41.9816L10.4973 46.2276L14.17 37.6225Z" fill="#263238"/>
<path opacity="0.5" d="M14.17 37.6225L4.04343 33.5039C2.63447 34.3341 1.52275 35.5869 0.86605 37.0846C0.254217 38.6562 0.234099 40.3964 0.809439 41.9816L10.4973 46.2276L14.17 37.6225Z" fill="white"/>
<path d="M16.7672 83.6769C16.7672 83.6769 3.60481 59.468 11.7499 40.6019C14.1732 34.9147 17.8955 29.8744 22.6182 25.8853C27.341 21.8963 32.9328 19.0694 38.9452 17.6313L39.1575 17.7021L16.8946 83.684L16.7672 83.6769Z" fill="#263238"/>
<path d="M38.9592 17.6313L53.6997 22.3868L31.635 84.4554L16.7671 83.6769L38.9592 17.6313Z" fill="#263238"/>
<path opacity="0.8" d="M38.9592 17.6313L53.6997 22.3868L31.635 84.4554L16.7671 83.6769L38.9592 17.6313Z" fill="white"/>
<path d="M38.1739 19.9521L50.1121 23.8867L30.418 80.2586L18.2109 79.3811L38.1739 19.9521Z" fill="#407BFF"/>
<path d="M38.1739 19.9521L50.1121 23.8867L30.418 80.2586L18.2109 79.3811L38.1739 19.9521Z" fill="white"/>
<path d="M67.0674 69.7999C67.066 73.7415 68.2335 77.595 70.4223 80.873C72.6112 84.151 75.723 86.7063 79.3641 88.2157C83.0053 89.725 87.0123 90.1207 90.8783 89.3525C94.7444 88.5844 98.2958 86.6871 101.083 83.9004C103.871 81.1138 105.77 77.563 106.539 73.6973C107.309 69.8315 106.914 65.8244 105.406 62.1827C103.898 58.541 101.344 55.4283 98.0669 53.2383C94.7897 51.0483 90.9366 49.8794 86.995 49.8794C84.3784 49.8785 81.7873 50.393 79.3696 51.3937C76.9519 52.3944 74.755 53.8616 72.9045 55.7115C71.0539 57.5614 69.586 59.7577 68.5844 62.175C67.5829 64.5924 67.0674 67.1833 67.0674 69.7999ZM72.7286 69.2975C72.7286 66.4787 73.5645 63.7231 75.1306 61.3794C76.6966 59.0356 78.9225 57.2089 81.5268 56.1302C84.131 55.0514 86.9967 54.7692 89.7613 55.3191C92.526 55.8691 95.0655 57.2265 97.0587 59.2197C99.0519 61.2129 100.409 63.7524 100.959 66.517C101.509 69.2817 101.227 72.1473 100.148 74.7516C99.0694 77.3558 97.2427 79.5817 94.8989 81.1477C92.5552 82.7138 89.7997 83.5497 86.9808 83.5497C85.1092 83.5478 83.2563 83.1773 81.5278 82.4594C79.7994 81.7414 78.2293 80.6901 76.9072 79.3653C75.585 78.0406 74.5368 76.4684 73.8223 74.7385C73.1077 73.0086 72.7409 71.155 72.7428 69.2833L72.7286 69.2975Z" fill="#263238"/>
<g opacity="0.2">
<path opacity="0.2" d="M67.0674 69.7999C67.066 73.7415 68.2335 77.595 70.4223 80.873C72.6112 84.151 75.723 86.7063 79.3641 88.2157C83.0053 89.725 87.0123 90.1207 90.8783 89.3525C94.7444 88.5844 98.2958 86.6871 101.083 83.9004C103.871 81.1138 105.77 77.563 106.539 73.6973C107.309 69.8315 106.914 65.8244 105.406 62.1827C103.898 58.541 101.344 55.4283 98.0669 53.2383C94.7897 51.0483 90.9366 49.8794 86.995 49.8794C84.3784 49.8785 81.7873 50.393 79.3696 51.3937C76.9519 52.3944 74.755 53.8616 72.9045 55.7115C71.0539 57.5614 69.586 59.7577 68.5844 62.175C67.5829 64.5924 67.0674 67.1833 67.0674 69.7999ZM72.7286 69.2975C72.7286 66.4787 73.5645 63.7231 75.1306 61.3794C76.6966 59.0356 78.9225 57.2089 81.5268 56.1302C84.131 55.0514 86.9967 54.7692 89.7613 55.3191C92.526 55.8691 95.0655 57.2265 97.0587 59.2197C99.0519 61.2129 100.409 63.7524 100.959 66.517C101.509 69.2817 101.227 72.1473 100.148 74.7516C99.0694 77.3558 97.2427 79.5817 94.8989 81.1477C92.5552 82.7138 89.7997 83.5497 86.9808 83.5497C85.1092 83.5478 83.2563 83.1773 81.5278 82.4594C79.7994 81.7414 78.2293 80.6901 76.9072 79.3653C75.585 78.0406 74.5368 76.4684 73.8223 74.7385C73.1077 73.0086 72.7409 71.155 72.7428 69.2833L72.7286 69.2975Z" fill="white"/>
</g>
<path d="M90.5539 99.6909H92.4292V97.1929H90.5539V99.6909Z" fill="#263238"/>
<path d="M88.467 99.0894H91.8496V97.8651H88.467V99.0894Z" fill="#263238"/>
<path d="M83.5628 100.356H81.6875V102.854H83.5628V100.356Z" fill="#263238"/>
<path d="M85.6507 101.029H82.2681V102.253H85.6507V101.029Z" fill="#263238"/>
<path d="M91.9626 92.6851H93.8379V90.187H91.9626V92.6851Z" fill="#263238"/>
<path d="M89.8752 92.0063H93.2578V90.7821H89.8752V92.0063Z" fill="#263238"/>
<path d="M86.1806 124.34H88.4663V97.4763H86.1806V124.34Z" fill="black"/>
<path d="M85.2472 108.983H89.5215V105.183H85.2472V108.983Z" fill="#263238"/>
<path d="M86.6411 97.1934H88.106V92.6431H86.6411V97.1934Z" fill="#263238"/>
<path d="M85.6006 103.52H89.1389V96.443C89.1389 95.97 88.951 95.5164 88.6165 95.182C88.2821 94.8475 87.8285 94.6597 87.3556 94.6597C87.1214 94.6597 86.8895 94.7058 86.6731 94.7954C86.4568 94.885 86.2602 95.0164 86.0946 95.182C85.929 95.3476 85.7976 95.5442 85.708 95.7605C85.6184 95.9769 85.5723 96.2088 85.5723 96.443L85.6006 103.52Z" fill="black"/>
<path d="M84.6173 105.104H90.2007V103.519H84.6173V105.104Z" fill="#263238"/>
<path d="M84.6738 93.3291H90.1016V89.4157H84.6738V93.3291Z" fill="#263238"/>
<path d="M82.6572 116.866H92.8687V113.568H82.6572V116.866Z" fill="#263238"/>
<path opacity="0.1" d="M82.6572 116.866H92.8687V113.568H82.6572V116.866Z" fill="black"/>
<path d="M198.571 62.3589C199.631 62.3605 200.679 62.5797 201.65 63.0029L203.504 63.8237C204.784 64.2949 205.888 65.1473 206.668 66.2659C207.449 67.3846 207.867 68.7156 207.867 70.0794C207.867 71.4433 207.449 72.7743 206.668 73.8929C205.888 75.0116 204.784 75.864 203.504 76.3351L201.65 77.1489C200.681 77.5803 199.632 77.8045 198.571 77.8071C197.538 77.8383 196.51 77.6619 195.546 77.2882C194.582 76.9144 193.704 76.351 192.962 75.6313C192.22 74.9116 191.63 74.0503 191.227 73.0985C190.825 72.1466 190.617 71.1236 190.617 70.0901C190.617 69.0565 190.825 68.0335 191.227 67.0816C191.63 66.1298 192.22 65.2685 192.962 64.5488C193.704 63.8291 194.582 63.2657 195.546 62.892C196.51 62.5182 197.538 62.3418 198.571 62.373V62.3589Z" fill="#263238"/>
<path opacity="0.2" d="M198.571 62.3589C199.631 62.3605 200.679 62.5797 201.65 63.0029L203.504 63.8237C204.784 64.2949 205.888 65.1473 206.668 66.2659C207.449 67.3846 207.867 68.7156 207.867 70.0794C207.867 71.4433 207.449 72.7743 206.668 73.8929C205.888 75.0116 204.784 75.864 203.504 76.3351L201.65 77.1489C200.681 77.5803 199.632 77.8045 198.571 77.8071C197.538 77.8383 196.51 77.6619 195.546 77.2882C194.582 76.9144 193.704 76.351 192.962 75.6313C192.22 74.9116 191.63 74.0503 191.227 73.0985C190.825 72.1466 190.617 71.1236 190.617 70.0901C190.617 69.0565 190.825 68.0335 191.227 67.0816C191.63 66.1298 192.22 65.2685 192.962 64.5488C193.704 63.8291 194.582 63.2657 195.546 62.892C196.51 62.5182 197.538 62.3418 198.571 62.373V62.3589Z" fill="black"/>
<path d="M201.324 64.234H208.988C209.772 64.2067 210.554 64.3376 211.286 64.6189C212.019 64.9002 212.688 65.3261 213.252 65.8712C213.816 66.4164 214.265 67.0696 214.572 67.7919C214.879 68.5143 215.037 69.291 215.037 70.0757C215.037 70.8604 214.879 71.6371 214.572 72.3595C214.265 73.0818 213.816 73.7351 213.252 74.2802C212.688 74.8254 212.019 75.2513 211.286 75.5325C210.554 75.8138 209.772 75.9447 208.988 75.9174H201.324C199.81 75.8647 198.375 75.2262 197.323 74.1364C196.27 73.0466 195.682 71.5908 195.682 70.0757C195.682 68.5607 196.27 67.1048 197.323 66.015C198.375 64.9253 199.81 64.2867 201.324 64.234Z" fill="#263238"/>
<path opacity="0.2" d="M201.324 64.234H208.988C209.772 64.2067 210.554 64.3376 211.286 64.6189C212.019 64.9002 212.688 65.3261 213.252 65.8712C213.816 66.4164 214.265 67.0696 214.572 67.7919C214.879 68.5143 215.037 69.291 215.037 70.0757C215.037 70.8604 214.879 71.6371 214.572 72.3595C214.265 73.0818 213.816 73.7351 213.252 74.2802C212.688 74.8254 212.019 75.2513 211.286 75.5325C210.554 75.8138 209.772 75.9447 208.988 75.9174H201.324C199.81 75.8647 198.375 75.2262 197.323 74.1364C196.27 73.0466 195.682 71.5908 195.682 70.0757C195.682 68.5607 196.27 67.1048 197.323 66.015C198.375 64.9253 199.81 64.2867 201.324 64.234Z" fill="white"/>
<path opacity="0.2" d="M203.454 64.234H205.273C204.488 64.2067 203.707 64.3376 202.974 64.6189C202.241 64.9002 201.573 65.3261 201.009 65.8712C200.444 66.4164 199.995 67.0696 199.689 67.7919C199.382 68.5143 199.224 69.291 199.224 70.0757C199.224 70.8604 199.382 71.6371 199.689 72.3595C199.995 73.0818 200.444 73.7351 201.009 74.2802C201.573 74.8254 202.241 75.2513 202.974 75.5325C203.707 75.8138 204.488 75.9447 205.273 75.9174H203.454C201.94 75.8647 200.505 75.2262 199.453 74.1364C198.4 73.0466 197.812 71.5908 197.812 70.0757C197.812 68.5607 198.4 67.1048 199.453 66.015C200.505 64.9253 201.94 64.2867 203.454 64.234Z" fill="white"/>
<path d="M207.693 59.04H212.788C213.04 59.0405 213.285 59.1172 213.493 59.2599C213.7 59.4027 213.859 59.6048 213.949 59.8397L215.145 62.9605H205.273C205.273 62.9605 206.858 59.04 207.693 59.04Z" fill="#263238"/>
<path opacity="0.2" d="M209.462 59.04H212.788C213.04 59.0405 213.285 59.1172 213.492 59.2599C213.699 59.4027 213.858 59.6048 213.949 59.8397L215.144 62.9605H207.105L208.301 59.8397C208.391 59.6042 208.549 59.4015 208.757 59.2587C208.964 59.1158 209.21 59.0395 209.462 59.04Z" fill="white"/>
<path d="M216.906 77.2124H201.026C200.276 77.2124 199.556 76.9142 199.025 76.3833C198.494 75.8525 198.196 75.1325 198.196 74.3818V64.3897C198.196 64.0143 198.345 63.6543 198.61 63.3889C198.876 63.1235 199.236 62.9744 199.611 62.9744H218.322C218.697 62.9744 219.057 63.1235 219.322 63.3889C219.588 63.6543 219.737 64.0143 219.737 64.3897V74.3818C219.737 75.1325 219.439 75.8525 218.908 76.3833C218.377 76.9142 217.657 77.2124 216.906 77.2124Z" fill="#263238"/>
<path opacity="0.2" d="M216.906 77.2124H204.805C204.055 77.2124 203.335 76.9142 202.804 76.3833C202.273 75.8525 201.975 75.1325 201.975 74.3818V64.3897C201.975 64.0143 202.124 63.6543 202.389 63.3889C202.655 63.1235 203.015 62.9744 203.39 62.9744H218.322C218.697 62.9744 219.057 63.1235 219.322 63.3889C219.588 63.6543 219.737 64.0143 219.737 64.3897V74.3818C219.737 75.1325 219.439 75.8525 218.908 76.3833C218.377 76.9142 217.657 77.2124 216.906 77.2124Z" fill="white"/>
<path d="M209.703 74.2476H218.308C218.699 74.2476 219.016 73.9307 219.016 73.5399V66.7322C219.016 66.3414 218.699 66.0246 218.308 66.0246H209.703C209.312 66.0246 208.995 66.3414 208.995 66.7322V73.5399C208.995 73.9307 209.312 74.2476 209.703 74.2476Z" fill="#407BFF"/>
<path opacity="0.5" d="M209.703 74.2476H218.308C218.699 74.2476 219.016 73.9307 219.016 73.5399V66.7322C219.016 66.3414 218.699 66.0246 218.308 66.0246H209.703C209.312 66.0246 208.995 66.3414 208.995 66.7322V73.5399C208.995 73.9307 209.312 74.2476 209.703 74.2476Z" fill="white"/>
<path d="M210.163 62.7202H212.555C212.945 62.7202 213.262 62.4034 213.262 62.0126V61.1351C213.262 60.7442 212.945 60.4274 212.555 60.4274H210.163C209.772 60.4274 209.455 60.7442 209.455 61.1351V62.0126C209.455 62.4034 209.772 62.7202 210.163 62.7202Z" fill="#407BFF"/>
<path opacity="0.5" d="M210.163 62.7202H212.555C212.945 62.7202 213.262 62.4034 213.262 62.0126V61.1351C213.262 60.7442 212.945 60.4274 212.555 60.4274H210.163C209.772 60.4274 209.455 60.7442 209.455 61.1351V62.0126C209.455 62.4034 209.772 62.7202 210.163 62.7202Z" fill="white"/>
<path opacity="0.2" d="M207.884 68.5439H208.996V67.4319H207.884V68.5439Z" fill="white"/>
<path opacity="0.2" d="M207.884 69.874H208.996V68.762H207.884V69.874Z" fill="white"/>
<path opacity="0.2" d="M207.884 71.2046H208.996V70.0926H207.884V71.2046Z" fill="white"/>
<path opacity="0.2" d="M207.884 72.5352H208.996V71.4232H207.884V72.5352Z" fill="white"/>
<path d="M202.817 69.9593C202.817 70.4267 202.956 70.8837 203.216 71.2724C203.475 71.6611 203.845 71.964 204.276 72.1429C204.708 72.3218 205.184 72.3686 205.642 72.2774C206.101 72.1862 206.522 71.9611 206.852 71.6306C207.183 71.3 207.408 70.8789 207.499 70.4204C207.59 69.9619 207.544 69.4867 207.365 69.0548C207.186 68.6229 206.883 68.2537 206.494 67.994C206.105 67.7343 205.648 67.5957 205.181 67.5957C204.554 67.5957 203.953 67.8447 203.51 68.288C203.066 68.7312 202.817 69.3324 202.817 69.9593ZM203.808 69.9593C203.807 69.6875 203.886 69.4213 204.036 69.1946C204.186 68.9679 204.4 68.7909 204.651 68.6859C204.901 68.5809 205.178 68.5527 205.444 68.6049C205.711 68.657 205.956 68.7872 206.149 68.9789C206.342 69.1706 206.473 69.4153 206.527 69.6818C206.58 69.9483 206.554 70.2246 206.45 70.4759C206.346 70.7272 206.17 70.942 205.944 71.0932C205.718 71.2443 205.453 71.325 205.181 71.325C204.999 71.3288 204.819 71.2963 204.65 71.2293C204.481 71.1624 204.327 71.0624 204.197 70.9352C204.067 70.808 203.964 70.6561 203.893 70.4886C203.823 70.321 203.787 70.141 203.787 69.9593H203.808Z" fill="#263238"/>
<path d="M204.268 69.9595C204.268 70.1923 204.361 70.4155 204.525 70.58C204.69 70.7446 204.913 70.837 205.146 70.837C205.378 70.837 205.601 70.7446 205.766 70.58C205.931 70.4155 206.023 70.1923 206.023 69.9595C206.023 69.7268 205.931 69.5036 205.766 69.339C205.601 69.1745 205.378 69.082 205.146 69.082C204.913 69.082 204.69 69.1745 204.525 69.339C204.361 69.5036 204.268 69.7268 204.268 69.9595Z" fill="#263238"/>
<path d="M208.097 64.2346C208.097 64.3266 208.133 64.4149 208.198 64.48C208.263 64.5451 208.352 64.5816 208.444 64.5816C208.489 64.5817 208.534 64.5726 208.575 64.5551C208.617 64.5376 208.655 64.5119 208.687 64.4796C208.718 64.4473 208.743 64.4089 208.76 64.3669C208.777 64.3248 208.785 64.2798 208.784 64.2346C208.785 64.1897 208.777 64.145 208.76 64.1033C208.743 64.0617 208.718 64.0238 208.686 63.992C208.655 63.9603 208.617 63.9353 208.575 63.9185C208.533 63.9018 208.489 63.8936 208.444 63.8946C208.399 63.8937 208.354 63.9018 208.311 63.9184C208.269 63.9351 208.231 63.96 208.199 63.9916C208.166 64.0233 208.141 64.0611 208.123 64.1028C208.106 64.1445 208.097 64.1893 208.097 64.2346Z" fill="#407BFF"/>
<path d="M213.036 88.6841H215.131V85.8888H213.036V88.6841Z" fill="#263238"/>
<path d="M210.694 88.0117H214.479V86.6389H210.694V88.0117Z" fill="#263238"/>
<path d="M205.209 89.4268H203.115V92.222H205.209V89.4268Z" fill="#263238"/>
<path d="M207.545 90.1841H203.759V91.5569H207.545V90.1841Z" fill="#263238"/>
<path d="M214.607 80.8428H216.702V78.0475H214.607V80.8428Z" fill="#263238"/>
<path d="M212.272 80.0928H216.058V78.7199H212.272V80.0928Z" fill="#263238"/>
<path d="M208.139 115.376H210.693V94.7341H208.139V115.376Z" fill="black"/>
<path d="M203.709 115.971H215.123V112.284H203.709V115.971Z" fill="#263238"/>
<path opacity="0.1" d="M203.709 115.971H215.123V112.284H203.709V115.971Z" fill="black"/>
<path d="M207.099 107.649H211.875V103.403H207.099V107.649Z" fill="#263238"/>
<path d="M207.099 101.195H211.875V96.9489H207.099V101.195Z" fill="#263238"/>
<path d="M208.662 85.8955H210.297V80.8075H208.662V85.8955Z" fill="#263238"/>
<path d="M207.488 92.9653H211.479V85.0537C211.479 84.5244 211.269 84.0168 210.894 83.6426C210.52 83.2684 210.013 83.0581 209.483 83.0581C208.954 83.0581 208.447 83.2684 208.072 83.6426C207.698 84.0168 207.488 84.5244 207.488 85.0537V92.9653Z" fill="black"/>
<path d="M206.384 94.7412H212.633V92.9721H206.384V94.7412Z" fill="#263238"/>
<path d="M206.455 81.5718H212.526V77.1914H206.455V81.5718Z" fill="#263238"/>
</svg>
