<svg width="24" height="24" viewBox="0 0 24 24" fill="none" xmlns="http://www.w3.org/2000/svg">
<g id="Iconly/Light/Image">
<g id="Image">
<path id="Stroke 1" fill-rule="evenodd" clip-rule="evenodd" d="M21.21 7.899V16.05C21.21 19.07 19.32 21.2 16.3 21.2H7.65C4.63 21.2 2.75 19.07 2.75 16.05V7.899C2.75 4.879 4.64 2.75 7.65 2.75H16.3C19.32 2.75 21.21 4.879 21.21 7.899Z" stroke="#0066FF" stroke-width="1.5" stroke-linecap="round" stroke-linejoin="round"/>
</g>
<path id="ID" d="M15.4753 9.70403L15.4755 9.70427C16.0286 10.2195 16.3132 10.9914 16.3132 12.0386C16.3132 13.1108 16.0112 13.9049 15.4223 14.4391C14.8318 14.9709 13.9404 15.2455 12.73 15.2455H12.4802C11.9831 15.2455 11.5802 14.8426 11.5802 14.3455V9.82114C11.5802 9.32408 11.9831 8.92114 12.4802 8.92114H12.9715C14.0965 8.92114 14.925 9.18783 15.4753 9.70403ZM16.3775 15.174L16.3105 15.0998L16.3775 15.174C17.1968 14.4353 17.6 13.3736 17.6 12.0051C17.6 10.7214 17.2123 9.70913 16.4267 8.98234C15.6421 8.25648 14.5482 7.9 13.1587 7.9H11.4537C10.8462 7.9 10.3537 8.39249 10.3537 9V15.1667C10.3537 15.7742 10.8462 16.2667 11.4537 16.2667H12.8991C14.3993 16.2667 15.564 15.9074 16.3775 15.174ZM6.9 15.6534C6.9 15.9921 7.17455 16.2667 7.51323 16.2667C7.8519 16.2667 8.12645 15.9921 8.12645 15.6534V8.51323C8.12645 8.17455 7.8519 7.9 7.51323 7.9C7.17455 7.9 6.9 8.17455 6.9 8.51323V15.6534Z" fill="#0066FF" stroke="#0066FF" stroke-width="0.2"/>
</g>
</svg>
