<svg width="24" height="24" viewBox="0 0 24 24" fill="none" xmlns="http://www.w3.org/2000/svg">
<g clip-path="url(#clip0_437_665)">
<path d="M19.7917 23H4.4375C2.54183 23 1 21.4582 1 19.5625V3.52083C1 2.13025 2.13025 1 3.52083 1H14.9792C16.3698 1 17.5 2.13025 17.5 3.52083V3.75H20.4792C21.8698 3.75 23 4.88025 23 6.27083V19.5625C23 21.3188 21.6763 22.7708 19.9741 22.9753C19.9163 22.9918 19.8549 23 19.7917 23ZM17.5 5.125V19.5625C17.5 20.7001 18.4249 21.625 19.5625 21.625C20.7001 21.625 21.625 20.7001 21.625 19.5625V6.27083C21.625 5.63925 21.1108 5.125 20.4792 5.125H17.5ZM3.52083 2.375C2.88925 2.375 2.375 2.88925 2.375 3.52083V19.5625C2.375 20.7001 3.29992 21.625 4.4375 21.625H16.8143C16.3817 21.0503 16.125 20.3353 16.125 19.5625V3.52083C16.125 2.88925 15.6108 2.375 14.9792 2.375H3.52083Z" fill="#0066FF"/>
<path d="M4.5 11.0002V6.5835C4.5 6.44542 4.61193 6.3335 4.75 6.3335H9.16667C9.30474 6.3335 9.41667 6.44542 9.41667 6.5835V11.0002C9.41667 11.1382 9.30474 11.2502 9.16667 11.2502H4.75C4.61193 11.2502 4.5 11.1382 4.5 11.0002Z" stroke="#0066FF" stroke-width="1.5"/>
<path d="M14.0625 15.896H4.4375C4.058 15.896 3.75 15.588 3.75 15.2085C3.75 14.829 4.058 14.521 4.4375 14.521H14.0625C14.442 14.521 14.75 14.829 14.75 15.2085C14.75 15.588 14.442 15.896 14.0625 15.896Z" fill="#0066FF"/>
<path d="M14.0625 19.3335H4.4375C4.058 19.3335 3.75 19.0255 3.75 18.646C3.75 18.2665 4.058 17.9585 4.4375 17.9585H14.0625C14.442 17.9585 14.75 18.2665 14.75 18.646C14.75 19.0255 14.442 19.3335 14.0625 19.3335Z" fill="#0066FF"/>
</g>
<defs>
<clipPath id="clip0_437_665">
<rect width="22" height="22" fill="white" transform="translate(1 1)"/>
</clipPath>
</defs>
</svg>
