<svg width="24" height="24" viewBox="0 0 24 24" fill="none" xmlns="http://www.w3.org/2000/svg">
<path d="M21.1711 1.99805H14.5086C14.049 1.99805 13.6777 2.37159 13.6777 2.82909C13.6777 3.28871 14.049 3.66135 14.5086 3.66135H19.1628L13.4289 9.39469C13.3386 9.48546 13.2802 9.58804 13.2405 9.69954C12.0145 8.71297 10.5201 8.14865 8.92402 8.14865C7.07282 8.14865 5.33357 8.86849 4.0249 10.1758C1.32526 12.877 1.32526 17.2703 4.0249 19.9733C5.33266 21.2814 7.07282 22.0018 8.92266 22.0018C10.7739 22.0018 12.5131 21.2795 13.8213 19.9733C16.3399 17.4508 16.4772 13.4749 14.2967 10.7572C14.4091 10.7176 14.5132 10.6581 14.6044 10.5683L20.3364 4.83446V9.49C20.3364 9.94871 20.7086 10.3209 21.1691 10.3209C21.6269 10.3209 22 9.94871 22 9.49V2.82803C22.002 2.37068 21.628 1.99805 21.1711 1.99805ZM12.6462 18.7996C10.656 20.7884 7.18886 20.7884 5.20134 18.7996C3.14877 16.7471 3.14877 13.4066 5.20134 11.3532C6.19487 10.3587 7.51731 9.8118 8.92493 9.8118C10.3294 9.8118 11.6527 10.3577 12.6462 11.3532C14.6985 13.4066 14.6985 16.7471 12.6462 18.7996Z" fill="#0066FF"/>
</svg>
