<svg width="40" height="25" viewBox="0 0 40 25" fill="none" xmlns="http://www.w3.org/2000/svg">
<path d="M12.3365 24.6729C19.1497 24.6729 24.6729 19.1497 24.6729 12.3365C24.6729 5.52322 19.1497 0 12.3365 0C5.52322 0 0 5.52322 0 12.3365C0 19.1497 5.52322 24.6729 12.3365 24.6729Z" fill="#EE0005"/>
<path d="M27.6636 24.6729C34.4768 24.6729 40.0001 19.1497 40.0001 12.3365C40.0001 5.52322 34.4768 0 27.6636 0C20.8504 0 15.3271 5.52322 15.3271 12.3365C15.3271 19.1497 20.8504 24.6729 27.6636 24.6729Z" fill="#F9A000"/>
<path d="M15.3273 12.3361C15.3273 16.2532 17.1532 19.7435 20.0001 22.0032C22.8468 19.7434 24.6729 16.2532 24.6729 12.3361C24.6729 8.41901 22.8469 4.9287 20.0001 2.66895C17.1533 4.92888 15.3273 8.4191 15.3273 12.3361Z" fill="#FF6300"/>
</svg>
