<svg width="24" height="24" viewBox="0 0 24 24" fill="none" xmlns="http://www.w3.org/2000/svg">
<path d="M9.79094 15.3075V14.6726C9.79094 13.9451 9.93031 13.3399 10.2091 12.8571C10.4878 12.3743 10.9756 11.875 11.6725 11.3591C12.5017 10.7374 13.0348 10.2546 13.2718 9.91071C13.5157 9.5668 13.6376 9.15675 13.6376 8.68056C13.6376 8.125 13.4425 7.69841 13.0523 7.40079C12.662 7.10317 12.101 6.95437 11.3693 6.95437C10.7073 6.95437 10.0941 7.04365 9.52962 7.22222C8.96516 7.40079 8.41463 7.61574 7.87805 7.86706L7 6.12103C8.41463 5.37368 9.93031 5 11.547 5C12.9129 5 13.9965 5.31746 14.7979 5.95238C15.5993 6.5873 16 7.46362 16 8.58135C16 9.07738 15.9233 9.5205 15.77 9.91071C15.6167 10.2943 15.3833 10.6614 15.0697 11.0119C14.7631 11.3624 14.23 11.8188 13.4704 12.381C12.8223 12.8638 12.3868 13.2639 12.1638 13.5813C11.9477 13.8988 11.8397 14.3254 11.8397 14.8611V15.3075H9.79094ZM9.36237 18.4722C9.36237 17.4735 9.87456 16.9742 10.899 16.9742C11.4007 16.9742 11.784 17.1065 12.0488 17.371C12.3136 17.629 12.446 17.996 12.446 18.4722C12.446 18.9418 12.3101 19.3155 12.0383 19.5933C11.7735 19.8644 11.3937 20 10.899 20C10.4042 20 10.0244 19.8677 9.75958 19.6032C9.49477 19.332 9.36237 18.955 9.36237 18.4722Z" fill="#0066FF"/>
</svg>
