<svg width="24" height="24" viewBox="0 0 24 24" fill="none" xmlns="http://www.w3.org/2000/svg">
<path d="M23.2969 21.7838C22.5209 21.7838 22.1708 21.6095 21.7275 21.3888C21.5446 21.2977 21.3528 21.2024 21.1313 21.1174L23.5062 14.8698C23.691 14.3835 23.6603 13.8395 23.422 13.3771C23.1836 12.9147 22.7582 12.5741 22.255 12.4426L20.6197 12.0154V7.11098C20.6197 6.08169 19.7823 5.24432 18.753 5.24432H15.5257V3.4296C15.5257 1.98491 14.3503 0.80957 12.9056 0.80957H11.0944C9.64973 0.80957 8.47439 1.98491 8.47439 3.4296V5.24427H5.247C4.21772 5.24427 3.38034 6.08165 3.38034 7.11093V12.0154L1.74506 12.4426C1.24177 12.5741 0.816375 12.9147 0.578062 13.3771C0.33975 13.8395 0.309 14.3835 0.493875 14.8698L2.86875 21.1175C2.64731 21.2024 2.4555 21.2977 2.27264 21.3888C1.82934 21.6095 1.47923 21.7839 0.703125 21.7839C0.314812 21.7839 0 22.0987 0 22.487C0 22.8753 0.314812 23.1901 0.703125 23.1901C1.80994 23.1901 2.38875 22.9019 2.89941 22.6477C3.3427 22.427 3.69281 22.2526 4.46892 22.2526C5.24503 22.2526 5.59514 22.427 6.03844 22.6477C6.54909 22.9019 7.12791 23.1901 8.23472 23.1901C9.34148 23.1901 9.92025 22.9019 10.431 22.6477C10.8742 22.427 11.2243 22.2526 12.0003 22.2526C12.7763 22.2526 13.1264 22.427 13.5697 22.6477C14.0803 22.9019 14.6591 23.1901 15.7658 23.1901C16.8726 23.1901 17.4514 22.9019 17.962 22.6477C18.4053 22.427 18.7554 22.2526 19.5314 22.2526C20.3074 22.2526 20.6575 22.427 21.1007 22.6477C21.6114 22.9019 22.1902 23.1901 23.2969 23.1901C23.6852 23.1901 24 22.8753 24 22.487C24 22.0987 23.6852 21.7838 23.2969 21.7838ZM9.88064 3.4296C9.88064 2.76032 10.4251 2.21582 11.0944 2.21582H12.9056C13.5749 2.21582 14.1194 2.76032 14.1194 3.4296V5.24427H9.88064V3.4296ZM4.78655 7.11098C4.78655 6.8571 4.99308 6.65057 5.24695 6.65057H18.753C19.0069 6.65057 19.2134 6.8571 19.2134 7.11098V11.648L12.1777 9.80962C12.0612 9.77919 11.9387 9.77919 11.8222 9.80962L4.7865 11.648V7.11098H4.78655ZM17.3352 21.3888C16.8919 21.6095 16.5418 21.7838 15.7658 21.7838C14.9899 21.7838 14.6398 21.6095 14.1965 21.3888C13.6859 21.1345 13.1071 20.8463 12.0003 20.8463C10.8936 20.8463 10.3148 21.1345 9.80409 21.3888C9.36084 21.6095 9.01073 21.7838 8.23472 21.7838C7.45866 21.7838 7.1085 21.6095 6.66525 21.3888C6.15459 21.1345 5.57578 20.8463 4.46897 20.8463C4.40114 20.8463 4.33533 20.8475 4.27134 20.8495L1.8083 14.3701C1.74919 14.2146 1.79527 14.0849 1.82798 14.0215C1.8607 13.958 1.93959 13.8453 2.10052 13.8032L12 11.2166L21.8995 13.8033C22.0604 13.8453 22.1393 13.958 22.172 14.0215C22.2047 14.0849 22.2508 14.2146 22.1917 14.3701L19.7287 20.8496C19.6648 20.8475 19.5991 20.8464 19.5314 20.8464C18.4246 20.8463 17.8458 21.1346 17.3352 21.3888Z" fill="#0066FF"/>
</svg>
