<svg width="20" height="20" viewBox="0 0 20 20" fill="none" xmlns="http://www.w3.org/2000/svg">
<path fill-rule="evenodd" clip-rule="evenodd" d="M0 6.2472C0 2.79697 2.81124 0 6.27907 0H13.7209C17.1888 0 20 2.79697 20 6.2472V11.5867C20 15.0369 17.1888 17.8339 13.7209 17.8339H12.1253C11.8227 17.8339 11.5248 17.9086 11.2583 18.0514L7.97837 19.8085C6.77634 20.4525 5.37678 19.3723 5.70493 18.0538C5.73275 17.942 5.64772 17.8339 5.53195 17.8339H3.31135C1.48255 17.8339 0 16.3589 0 14.5393V6.2472ZM6.27907 1.38827C3.58187 1.38827 1.39535 3.56369 1.39535 6.2472V14.5393C1.39535 15.5922 2.25317 16.4456 3.31135 16.4456H5.53195C6.5542 16.4456 7.30508 17.4002 7.05937 18.3875C7.02221 18.5368 7.18071 18.6591 7.31683 18.5862L10.5968 16.829C11.0666 16.5774 11.5918 16.4456 12.1253 16.4456H13.7209C16.4181 16.4456 18.6047 14.2702 18.6047 11.5867V6.2472C18.6047 3.56369 16.4181 1.38827 13.7209 1.38827H6.27907ZM6.27907 6.47858C6.27907 6.09522 6.59143 5.78445 6.97674 5.78445H13.9535C14.3388 5.78445 14.6512 6.09522 14.6512 6.47858C14.6512 6.86194 14.3388 7.17271 13.9535 7.17271H6.97674C6.59143 7.17271 6.27907 6.86194 6.27907 6.47858ZM8.13953 9.25511C8.13953 8.87175 8.45189 8.56098 8.83721 8.56098L13.9535 8.56098C14.3388 8.56098 14.6512 8.87176 14.6512 9.25512C14.6512 9.63848 14.3388 9.94925 13.9535 9.94925L8.83721 9.94925C8.45189 9.94925 8.13953 9.63847 8.13953 9.25511ZM6.27907 12.0316C6.27907 11.6483 6.59143 11.3375 6.97674 11.3375H13.9535C14.3388 11.3375 14.6512 11.6483 14.6512 12.0316C14.6512 12.415 14.3388 12.7258 13.9535 12.7258H6.97674C6.59143 12.7258 6.27907 12.415 6.27907 12.0316Z" fill="#0066FF"/>
</svg>
