<svg width="18" height="22" viewBox="0 0 18 22" fill="none" xmlns="http://www.w3.org/2000/svg">
<path d="M9.55349 12.6552L6.03464 9.13033L6.03463 9.13032C5.06844 8.16252 3.50266 8.16264 2.53637 9.13024L2.53622 9.13039L1.72459 9.94358C1.72449 9.94368 1.72439 9.94378 1.72429 9.94388C0.75821 10.9101 0.75901 12.4778 1.72405 13.4445C1.72406 13.4445 1.72408 13.4445 1.72409 13.4445L8.20896 19.9412C8.20925 19.9415 8.20954 19.9418 8.20983 19.9421C8.56672 20.3012 9.05159 20.5 9.55348 20.5C10.0552 20.5 10.5399 20.3013 10.8968 19.9424C10.8972 19.942 10.8976 19.9416 10.898 19.9412L24.2755 6.5404L24.2759 6.53997L9.55349 12.6552ZM9.55349 12.6552L19.9654 2.22582L19.9655 2.22573C20.9315 1.25837 22.4987 1.25765 23.4641 2.22623L24.2759 3.03957L9.55349 12.6552Z" stroke="#0066FF" stroke-width="1.5"/>
</svg>
