<svg width="40" height="14" viewBox="0 0 40 14" fill="none" xmlns="http://www.w3.org/2000/svg">
<path d="M12.8926 13.1922H16.281L18.3996 0H15.0124L12.8926 13.1922Z" fill="#191B73"/>
<path d="M13.6467 0.00148998L8.31898 13.1795H4.73357L2.11843 3.42384C1.84878 2.41749 1.15137 1.58071 0.210588 1.13247C0.140941 1.0989 0.0704314 1.06612 0 1.03498C0.1 0.686667 0.209804 0.34251 0.327843 0.00235285H3.05851C4.17961 0.0170979 5.00408 0.695686 5.26306 1.70125L6.40714 7.29537C6.40306 7.28392 6.39733 7.27161 6.39318 7.26016L6.74149 8.96314L10.0614 0V0.00164675L13.6467 0.00148998Z" fill="#191B73"/>
<path d="M37.2549 0.0405273H34.6333C33.8252 0.0405273 33.2114 0.273232 32.8614 1.10178L27.8287 13.1923H31.3847L32.364 10.5747H36.3429L36.8509 13.2021H38.2647C38.3922 13.2021 40 13.2021 40 13.2021C40 13.006 39.1866 9.34704 39.1866 9.34704L37.2549 0.0405273ZM33.3498 7.9326C33.4203 7.9326 34.7152 3.66037 34.7152 3.66037L35.7469 7.9326C35.7469 7.9326 34.0194 7.9326 33.3498 7.9326Z" fill="#191B73"/>
<path d="M25.2334 5.37356C24.0492 4.78885 23.3234 4.39411 23.3234 3.79615C23.3379 3.25238 23.9372 2.69529 25.2757 2.69529C26.3766 2.66768 27.1857 2.92634 27.7996 3.18376L28.107 3.32101L28.5676 0.560854C27.8983 0.302109 26.8371 0.0170898 25.5264 0.0170898C22.1802 0.0170898 19.824 1.75685 19.8094 4.24509C19.7818 6.08125 21.4963 7.10015 22.7794 7.71144C24.0901 8.3385 24.5364 8.74493 24.5364 9.30203C24.5219 10.1574 23.4765 10.5521 22.501 10.5521C21.1494 10.5521 20.4234 10.3489 19.3212 9.87223L18.875 9.66901L18.4011 12.5374C19.1971 12.8912 20.6609 13.2026 22.1803 13.2186C25.7363 13.2186 28.0503 11.5052 28.0794 8.8534C28.091 7.3985 27.1869 6.28438 25.2334 5.37356Z" fill="#191B73"/>
</svg>
