<svg width="24" height="24" viewBox="0 0 24 24" fill="none" xmlns="http://www.w3.org/2000/svg">
<g clip-path="url(#clip0_462_1217)">
<path d="M23.299 18.8911L21.5211 8.82778C21.1531 6.74489 19.3508 5.23312 17.2357 5.23312H14.7205C15.1008 4.69256 15.325 4.03467 15.325 3.32498C15.3251 1.49161 13.8334 0 12 0C10.1666 0 8.67495 1.49161 8.67495 3.32503C8.67495 4.03472 8.89915 4.69261 9.27945 5.23317H6.76423C4.64913 5.23317 2.84684 6.74494 2.47882 8.82783L0.700946 18.8911C0.476556 20.1614 0.823337 21.4567 1.65227 22.4449C2.48126 23.4332 3.69645 24 4.9864 24H19.0136C20.3036 24 21.5188 23.4332 22.3477 22.445C23.1767 21.4567 23.5233 20.1614 23.299 18.8911ZM12 1.41689C13.0521 1.41689 13.9081 2.27287 13.9081 3.32503C13.9081 4.37719 13.0521 5.23317 12 5.23317C10.9479 5.23317 10.0918 4.37719 10.0918 3.32503C10.0918 2.27287 10.9478 1.41689 12 1.41689ZM21.2621 21.5344C20.7031 22.2009 19.8836 22.5831 19.0136 22.5831H4.9864C4.11649 22.5831 3.29693 22.2009 2.7379 21.5344C2.17887 20.8679 1.94496 19.9943 2.09632 19.1377L3.8742 9.07434C4.1224 7.66964 5.33787 6.65002 6.76427 6.65002H17.2358C18.6623 6.65002 19.8777 7.66955 20.1259 9.07425L21.9038 19.1376C22.0551 19.9943 21.8211 20.8679 21.2621 21.5344Z" fill="#0066FF"/>
<path d="M9.6705 14.6166L11.4458 12.7822C11.7179 12.5011 11.7105 12.0526 11.4293 11.7805C11.1481 11.5083 10.6996 11.5158 10.4275 11.7969L8.44214 13.8484V12.2895C8.44214 11.8983 8.12493 11.5811 7.73367 11.5811C7.3424 11.5811 7.0252 11.8983 7.0252 12.2895V16.9438C7.0252 17.3351 7.3424 17.6523 7.73367 17.6523C8.12493 17.6523 8.44214 17.3351 8.44214 16.9438V15.3849L10.4275 17.4365C10.5665 17.5801 10.7515 17.6523 10.9367 17.6523C11.1141 17.6523 11.2918 17.586 11.4293 17.4529C11.7105 17.1808 11.7178 16.7323 11.4458 16.4511L9.6705 14.6166Z" fill="#0066FF"/>
<path d="M16.2665 14.1083H15.203C14.8118 14.1083 14.4946 14.4255 14.4946 14.8167C14.4946 15.208 14.8118 15.5252 15.203 15.5252H15.5464C15.4789 15.9276 15.1281 16.2353 14.7068 16.2353C14.2374 16.2353 13.8555 15.8534 13.8555 15.384V13.8492C13.8555 13.3798 14.2374 12.9979 14.7068 12.9979C14.9709 12.9979 15.2157 13.1175 15.3786 13.3262C15.6193 13.6346 16.0645 13.6895 16.3729 13.4487C16.6813 13.2079 16.7362 12.7628 16.4955 12.4544C16.0623 11.8994 15.4103 11.5811 14.7068 11.5811C13.4562 11.5811 12.4386 12.5986 12.4386 13.8492V15.384C12.4386 16.6347 13.4562 17.6522 14.7068 17.6522C15.9575 17.6522 16.975 16.6347 16.975 15.384V14.8168C16.975 14.4255 16.6578 14.1083 16.2665 14.1083Z" fill="#0066FF"/>
</g>
<defs>
<clipPath id="clip0_462_1217">
<rect width="24" height="24" fill="white"/>
</clipPath>
</defs>
</svg>
