<svg width="24" height="24" viewBox="0 0 24 24" fill="none" xmlns="http://www.w3.org/2000/svg">
<path fill-rule="evenodd" clip-rule="evenodd" d="M16.6857 2H7.31429C4.04762 2 2 4.31208 2 7.58516V16.4148C2 19.6879 4.0381 22 7.31429 22H16.6857C19.9619 22 22 19.6879 22 16.4148V7.58516C22 4.31208 19.9619 2 16.6857 2Z" stroke="#0066FF" stroke-width="1.5" stroke-linecap="round" stroke-linejoin="round"/>
<path d="M18.4614 7.16675C18.763 7.16675 18.9999 7.40508 18.9999 7.70841C18.9999 8.01174 18.763 8.25007 18.4614 8.25007H14.1537C13.8522 8.25007 13.6152 8.01174 13.6152 7.70841C13.6152 7.40508 13.8522 7.16675 14.1537 7.16675H18.4614Z" fill="#0066FF"/>
<path fill-rule="evenodd" clip-rule="evenodd" d="M14.1537 7.3668C13.9637 7.3668 13.8152 7.51447 13.8152 7.70846C13.8152 7.90245 13.9637 8.05012 14.1537 8.05012H18.4614C18.6514 8.05012 18.7999 7.90245 18.7999 7.70846C18.7999 7.51447 18.6514 7.3668 18.4614 7.3668H14.1537ZM13.4152 7.70846C13.4152 7.29579 13.7406 6.9668 14.1537 6.9668H18.4614C18.8745 6.9668 19.1999 7.29579 19.1999 7.70846C19.1999 8.12113 18.8745 8.45012 18.4614 8.45012H14.1537C13.7406 8.45012 13.4152 8.12113 13.4152 7.70846Z" fill="#0066FF"/>
<path d="M18.4614 13.6667C18.763 13.6667 18.9999 13.9051 18.9999 14.2084C18.9999 14.5117 18.763 14.75 18.4614 14.75H14.1537C13.8522 14.75 13.6152 14.5117 13.6152 14.2084C13.6152 13.9051 13.8522 13.6667 14.1537 13.6667H18.4614Z" fill="#0066FF"/>
<path fill-rule="evenodd" clip-rule="evenodd" d="M14.1537 13.8668C13.9637 13.8668 13.8152 14.0145 13.8152 14.2084C13.8152 14.4024 13.9637 14.5501 14.1537 14.5501H18.4614C18.6514 14.5501 18.7999 14.4024 18.7999 14.2084C18.7999 14.0145 18.6514 13.8668 18.4614 13.8668H14.1537ZM13.4152 14.2084C13.4152 13.7958 13.7406 13.4668 14.1537 13.4668H18.4614C18.8745 13.4668 19.1999 13.7958 19.1999 14.2084C19.1999 14.6211 18.8745 14.9501 18.4614 14.9501H14.1537C13.7406 14.9501 13.4152 14.6211 13.4152 14.2084Z" fill="#0066FF"/>
<path d="M18.4614 16.9166C18.763 16.9166 18.9999 17.155 18.9999 17.4583C18.9999 17.7616 18.763 17.9999 18.4614 17.9999H14.1537C13.8522 17.9999 13.6152 17.7616 13.6152 17.4583C13.6152 17.155 13.8522 16.9166 14.1537 16.9166H18.4614Z" fill="#0066FF"/>
<path fill-rule="evenodd" clip-rule="evenodd" d="M14.1537 17.1166C13.9637 17.1166 13.8152 17.2642 13.8152 17.4582C13.8152 17.6522 13.9637 17.7999 14.1537 17.7999H18.4614C18.6514 17.7999 18.7999 17.6522 18.7999 17.4582C18.7999 17.2642 18.6514 17.1166 18.4614 17.1166H14.1537ZM13.4152 17.4582C13.4152 17.0455 13.7406 16.7166 14.1537 16.7166H18.4614C18.8745 16.7166 19.1999 17.0455 19.1999 17.4582C19.1999 17.8709 18.8745 18.1999 18.4614 18.1999H14.1537C13.7406 18.1999 13.4152 17.8709 13.4152 17.4582Z" fill="#0066FF"/>
<path d="M9.84636 7.16675C10.1479 7.16675 10.3848 7.40508 10.3848 7.70841C10.3848 8.01174 10.1479 8.25007 9.84636 8.25007H8.23096V7.16675H9.84636Z" fill="#0066FF"/>
<path fill-rule="evenodd" clip-rule="evenodd" d="M8.03096 6.9668H9.84637C10.2595 6.9668 10.5848 7.29579 10.5848 7.70846C10.5848 8.12113 10.2595 8.45012 9.84637 8.45012H8.03096V6.9668ZM8.43096 7.3668V8.05012H9.84637C10.0363 8.05012 10.1848 7.90245 10.1848 7.70846C10.1848 7.51447 10.0363 7.3668 9.84637 7.3668H8.43096Z" fill="#0066FF"/>
<path d="M9.6837 17.0791C9.89909 17.2849 9.89909 17.6316 9.6837 17.8374C9.58678 17.9458 9.44678 17.9999 9.30678 17.9999C9.16678 17.9999 9.02678 17.9458 8.92986 17.8374L7.69141 16.5916L8.44525 15.8333L9.6837 17.0791Z" fill="#0066FF"/>
<path fill-rule="evenodd" clip-rule="evenodd" d="M8.44524 15.5497L9.82387 16.9365C10.1178 17.2196 10.119 17.6922 9.82745 17.9768C9.68845 18.1285 9.49422 18.2001 9.30678 18.2001C9.11867 18.2001 8.92373 18.128 8.78463 17.9751L7.40939 16.5917L8.44524 15.5497ZM8.44524 16.1171L7.9734 16.5917L9.07911 17.704C9.13363 17.7649 9.21662 17.8001 9.30678 17.8001C9.39694 17.8001 9.48013 17.7651 9.53464 17.7042L9.53986 17.6984L9.54552 17.693C9.67847 17.5659 9.67847 17.3509 9.54552 17.2238L9.54181 17.2203L8.44524 16.1171Z" fill="#0066FF"/>
<path d="M8.92986 13.8292C9.13448 13.6126 9.47909 13.6126 9.6837 13.8292C9.89909 14.0351 9.89909 14.3817 9.6837 14.5876L8.44525 15.8334L7.69141 15.0751L8.92986 13.8292Z" fill="#0066FF"/>
<path fill-rule="evenodd" clip-rule="evenodd" d="M9.53829 13.9666C9.4126 13.8335 9.20095 13.8335 9.07526 13.9666L9.07174 13.9703L7.97341 15.0751L8.44524 15.5498L9.54548 14.443C9.67843 14.3159 9.67848 14.1009 9.54552 13.9739L9.53829 13.9666ZM9.82558 13.6883C9.54225 13.3924 9.06894 13.393 8.78635 13.69L7.40939 15.0751L8.44524 16.1171L9.82388 14.7303C10.1185 14.4467 10.119 13.9726 9.82558 13.6883Z" fill="#0066FF"/>
<path d="M6.93457 15.8324L7.68845 15.0741L8.44234 15.8324L7.68846 16.5907L6.93457 15.8324Z" fill="#0066FF"/>
<path fill-rule="evenodd" clip-rule="evenodd" d="M6.65256 15.8324L7.68845 14.7904L8.72434 15.8324L7.68845 16.8744L6.65256 15.8324ZM7.21657 15.8324L7.68845 16.3071L8.16033 15.8324L7.68845 15.3577L7.21657 15.8324Z" fill="#0066FF"/>
<path d="M8.22977 8.25V9.87501C8.22977 10.1783 7.99284 10.4167 7.6913 10.4167C7.38976 10.4167 7.15283 10.1783 7.15283 9.87501V8.25H8.22977Z" fill="#0066FF"/>
<path fill-rule="evenodd" clip-rule="evenodd" d="M6.95284 8.05005H8.42977V9.87506C8.42977 10.2877 8.10442 10.6167 7.6913 10.6167C7.27819 10.6167 6.95284 10.2877 6.95284 9.87506V8.05005ZM7.35284 8.45005V9.87506C7.35284 10.0691 7.50133 10.2167 7.6913 10.2167C7.88127 10.2167 8.02977 10.0691 8.02977 9.87506V8.45005H7.35284Z" fill="#0066FF"/>
<path d="M7.15283 7.16675H8.22977V8.25007H7.15283V7.16675Z" fill="#0066FF"/>
<path fill-rule="evenodd" clip-rule="evenodd" d="M6.95284 6.9668H8.42977V8.45012H6.95284V6.9668ZM7.35284 7.3668V8.05012H8.02977V7.3668H7.35284Z" fill="#0066FF"/>
<path d="M8.22977 5.54166V7.16664H7.15283V5.54166C7.15283 5.23833 7.38976 5 7.6913 5C7.99284 5 8.22977 5.23833 8.22977 5.54166Z" fill="#0066FF"/>
<path fill-rule="evenodd" clip-rule="evenodd" d="M7.6913 5.20005C7.50133 5.20005 7.35284 5.34772 7.35284 5.54171V6.96669H8.02977V5.54171C8.02977 5.34772 7.88128 5.20005 7.6913 5.20005ZM6.95284 5.54171C6.95284 5.12904 7.27819 4.80005 7.6913 4.80005C8.10442 4.80005 8.42977 5.12904 8.42977 5.54171V7.36669H6.95284V5.54171Z" fill="#0066FF"/>
<path d="M7.69143 15.0751L6.93759 15.8334L5.69914 14.5876C5.48375 14.3817 5.48375 14.0351 5.69914 13.8292C5.90375 13.6126 6.24836 13.6126 6.45298 13.8292L7.69143 15.0751Z" fill="#0066FF"/>
<path fill-rule="evenodd" clip-rule="evenodd" d="M6.30757 13.9666C6.18188 13.8335 5.97023 13.8335 5.84455 13.9666L5.8375 13.9741C5.70454 14.1011 5.70436 14.316 5.83732 14.443L5.84102 14.4466L6.93759 15.5498L7.40943 15.0751L6.30757 13.9666ZM6.59649 13.69C6.31389 13.393 5.84059 13.3924 5.55726 13.6883C5.26381 13.9726 5.26438 14.4467 5.55896 14.7303L6.93759 16.1171L7.97344 15.0751L6.59649 13.69Z" fill="#0066FF"/>
<path d="M7.15384 7.16675V8.25007H5.53846C5.23692 8.25007 5 8.01174 5 7.70841C5 7.40508 5.23692 7.16675 5.53846 7.16675H7.15384Z" fill="#0066FF"/>
<path fill-rule="evenodd" clip-rule="evenodd" d="M5.53846 7.3668C5.3485 7.3668 5.2 7.51446 5.2 7.70846C5.2 7.90245 5.3485 8.05012 5.53846 8.05012H6.95384V7.3668H5.53846ZM4.8 7.70846C4.8 7.29579 5.12535 6.9668 5.53846 6.9668H7.35384V8.45012H5.53846C5.12535 8.45012 4.8 8.12112 4.8 7.70846Z" fill="#0066FF"/>
<path d="M6.45298 17.8374C6.35606 17.9458 6.21606 17.9999 6.07606 17.9999C5.93606 17.9999 5.79606 17.9458 5.69914 17.8374C5.48375 17.6316 5.48375 17.2849 5.69914 17.0791L6.93759 15.8333L7.69143 16.5916L6.45298 17.8374Z" fill="#0066FF"/>
<path fill-rule="evenodd" clip-rule="evenodd" d="M6.93759 15.5497L7.97344 16.5917L6.5982 17.9751C6.45911 18.128 6.26416 18.2001 6.07606 18.2001C5.88861 18.2001 5.69438 18.1285 5.55538 17.9768C5.26382 17.6922 5.26501 17.2196 5.55896 16.9365L6.93759 15.5497ZM6.93759 16.1171L5.83736 17.2238C5.70441 17.3509 5.70436 17.5659 5.83732 17.693L5.84297 17.6984L5.84819 17.7042C5.90271 17.7651 5.9859 17.8001 6.07606 17.8001C6.16622 17.8001 6.24941 17.7651 6.30393 17.7042L6.31094 17.6964L7.40943 16.5917L6.93759 16.1171Z" fill="#0066FF"/>
</svg>
