<svg width="24" height="24" viewBox="0 0 24 24" fill="none" xmlns="http://www.w3.org/2000/svg">
<path d="M14.6999 14.7V13.95H13.9499V14.7H14.6999ZM14.6999 9.30002H13.9499V10.05H14.6999V9.30002ZM9.29993 5.7H10.0499V5.7L9.29993 5.7ZM9.29993 9.30002V10.05H10.0499V9.30002H9.29993ZM9.29993 14.7H10.0499V13.95H9.29993V14.7ZM11.9999 20.25C10.923 20.25 10.0499 19.377 10.0499 18.3H8.54993C8.54993 20.2054 10.0945 21.75 11.9999 21.75V20.25ZM13.9499 18.3C13.9499 19.377 13.0769 20.25 11.9999 20.25V21.75C13.9053 21.75 15.4499 20.2054 15.4499 18.3H13.9499ZM13.9499 14.7V18.3H15.4499V14.7H13.9499ZM18.3 13.95H14.6999V15.45H18.3V13.95ZM20.25 12C20.25 13.077 19.377 13.95 18.3 13.95V15.45C20.2054 15.45 21.75 13.9054 21.75 12H20.25ZM18.3 10.05C19.377 10.05 20.25 10.9231 20.25 12H21.75C21.75 10.0946 20.2054 8.55002 18.3 8.55002V10.05ZM14.6999 10.05H18.3V8.55002H14.6999V10.05ZM13.9499 5.7V9.30002H15.4499V5.7H13.9499ZM11.9999 3.75C13.0769 3.75 13.9499 4.62304 13.9499 5.7H15.4499C15.4499 3.79462 13.9053 2.25 11.9999 2.25V3.75ZM10.0499 5.7C10.0499 4.62304 10.923 3.75 11.9999 3.75V2.25C10.0945 2.25 8.54993 3.79462 8.54993 5.7L10.0499 5.7ZM10.0499 9.30002V5.7H8.54993V9.30002H10.0499ZM5.7 10.05H9.29993V8.55002H5.7V10.05ZM3.75 12C3.75 10.9231 4.62304 10.05 5.7 10.05V8.55002C3.79462 8.55002 2.25 10.0946 2.25 12H3.75ZM5.7 13.95C4.62304 13.95 3.75 13.077 3.75 12H2.25C2.25 13.9054 3.79462 15.45 5.7 15.45V13.95ZM9.29993 13.95H5.7V15.45H9.29993V13.95ZM10.0499 18.3V14.7H8.54993V18.3H10.0499Z" fill="#056249"/>
</svg>
