<?xml version="1.0" encoding="UTF-8" standalone="no"?>
<svg
   width="19.999619"
   height="19.541599"
   viewBox="0 0 19.999619 19.541599"
   fill="none"
   version="1.1"
   id="svg8"
   sodipodi:docname="buy.svg"
   inkscape:version="1.2.1 (9c6d41e410, 2022-07-14)"
   xmlns:inkscape="http://www.inkscape.org/namespaces/inkscape"
   xmlns:sodipodi="http://sodipodi.sourceforge.net/DTD/sodipodi-0.dtd"
   xmlns="http://www.w3.org/2000/svg"
   xmlns:svg="http://www.w3.org/2000/svg">
  <defs
     id="defs12" />
  <sodipodi:namedview
     id="namedview10"
     pagecolor="#ffffff"
     bordercolor="#000000"
     borderopacity="0.25"
     inkscape:showpageshadow="2"
     inkscape:pageopacity="0.0"
     inkscape:pagecheckerboard="0"
     inkscape:deskcolor="#d1d1d1"
     showgrid="false"
     inkscape:zoom="13.763916"
     inkscape:cx="14.74871"
     inkscape:cy="22.086738"
     inkscape:window-width="2560"
     inkscape:window-height="1017"
     inkscape:window-x="1912"
     inkscape:window-y="-8"
     inkscape:window-maximized="1"
     inkscape:current-layer="svg8" />
  <g
     id="Iconly/Light/Buy"
     transform="translate(-28.0001,-2.5)">
    <g
       id="Buy">
      <path
         id="Stroke 1"
         d="m 28.7501,3.25 2.08,0.36 0.963,11.473 c 0.077,0.937 0.86,1.656 1.8,1.653 h 10.909 c 0.897,0.002 1.658,-0.658 1.785,-1.546 l 0.949,-6.558 C 47.3421,7.899 46.8331,7.219 46.1011,7.113 46.0371,7.104 31.1641,7.099 31.1641,7.099"
         stroke="#056249"
         stroke-width="1.5"
         stroke-linecap="round"
         stroke-linejoin="round" />
      <path
         id="Stroke 3"
         d="m 40.1251,10.7949 h 2.773"
         stroke="#056249"
         stroke-width="1.5"
         stroke-linecap="round"
         stroke-linejoin="round" />
      <path
         id="Stroke 5"
         fill-rule="evenodd"
         clip-rule="evenodd"
         d="m 33.1544,20.2026 c 0.301,0 0.544,0.244 0.544,0.544 0,0.301 -0.243,0.545 -0.544,0.545 -0.301,0 -0.544,-0.244 -0.544,-0.545 0,-0.3 0.243,-0.544 0.544,-0.544 z"
         fill="#056249"
         stroke="#056249"
         stroke-width="1.5"
         stroke-linecap="round"
         stroke-linejoin="round" />
      <path
         id="Stroke 7"
         fill-rule="evenodd"
         clip-rule="evenodd"
         d="m 44.4347,20.2026 c 0.301,0 0.545,0.244 0.545,0.544 0,0.301 -0.244,0.545 -0.545,0.545 -0.301,0 -0.544,-0.244 -0.544,-0.545 0,-0.3 0.243,-0.544 0.544,-0.544 z"
         fill="#056249"
         stroke="#056249"
         stroke-width="1.5"
         stroke-linecap="round"
         stroke-linejoin="round" />
    </g>
  </g>
</svg>
