<svg width="24" height="24" viewBox="0 0 24 24" fill="none" xmlns="http://www.w3.org/2000/svg">
<path fill-rule="evenodd" clip-rule="evenodd" d="M2 8.2472C2 4.79697 4.81124 2 8.27907 2H15.7209C19.1888 2 22 4.79697 22 8.2472V13.5867C22 17.0369 19.1888 19.8339 15.7209 19.8339H14.1253C13.8227 19.8339 13.5248 19.9086 13.2583 20.0514L9.97837 21.8085C8.77634 22.4525 7.37678 21.3723 7.70493 20.0538C7.73275 19.942 7.64772 19.8339 7.53195 19.8339H5.31135C3.48255 19.8339 2 18.3589 2 16.5393V8.2472ZM8.27907 3.38827C5.58187 3.38827 3.39535 5.56369 3.39535 8.2472V16.5393C3.39535 17.5922 4.25317 18.4456 5.31135 18.4456H7.53195C8.5542 18.4456 9.30508 19.4002 9.05937 20.3875C9.02221 20.5368 9.18071 20.6591 9.31683 20.5862L12.5968 18.829C13.0666 18.5774 13.5918 18.4456 14.1253 18.4456H15.7209C18.4181 18.4456 20.6047 16.2702 20.6047 13.5867V8.2472C20.6047 5.56369 18.4181 3.38827 15.7209 3.38827H8.27907ZM8.27907 8.47858C8.27907 8.09522 8.59143 7.78445 8.97674 7.78445H15.9535C16.3388 7.78445 16.6512 8.09522 16.6512 8.47858C16.6512 8.86194 16.3388 9.17271 15.9535 9.17271H8.97674C8.59143 9.17271 8.27907 8.86194 8.27907 8.47858ZM10.1395 11.2551C10.1395 10.8718 10.4519 10.561 10.8372 10.561L15.9535 10.561C16.3388 10.561 16.6512 10.8718 16.6512 11.2551C16.6512 11.6385 16.3388 11.9492 15.9535 11.9492L10.8372 11.9492C10.4519 11.9492 10.1395 11.6385 10.1395 11.2551ZM8.27907 14.0316C8.27907 13.6483 8.59143 13.3375 8.97674 13.3375H15.9535C16.3388 13.3375 16.6512 13.6483 16.6512 14.0316C16.6512 14.415 16.3388 14.7258 15.9535 14.7258H8.97674C8.59143 14.7258 8.27907 14.415 8.27907 14.0316Z" fill="#133B77"/>
</svg>
