<svg width="24" height="24" viewBox="0 0 24 24" fill="none" xmlns="http://www.w3.org/2000/svg">
<path d="M5.31891 14.5036L4.4835 17.6223L1.43011 17.6868C0.517594 15.9943 0 14.0579 0 12.0001C0 10.0102 0.483938 8.13367 1.34175 6.48137H1.34241L4.06078 6.97974L5.25159 9.68181C5.00236 10.4084 4.86652 11.1884 4.86652 12.0001C4.86661 12.8809 5.02617 13.7249 5.31891 14.5036Z" fill="#FBBB00"/>
<path d="M23.7903 9.75827C23.9282 10.4842 24 11.2338 24 12C24 12.8591 23.9097 13.6972 23.7376 14.5055C23.1535 17.2563 21.6271 19.6583 19.5126 21.3581L19.5119 21.3574L16.088 21.1827L15.6034 18.1576C17.0065 17.3348 18.103 16.0471 18.6805 14.5055H12.2638V9.75827H18.7742H23.7903Z" fill="#518EF8"/>
<path d="M19.5118 21.3574L19.5125 21.3581C17.456 23.0111 14.8437 24.0001 12 24.0001C7.43009 24.0001 3.45691 21.4458 1.43008 17.6869L5.31888 14.5036C6.33227 17.2082 8.94129 19.1335 12 19.1335C13.3147 19.1335 14.5464 18.7781 15.6033 18.1577L19.5118 21.3574Z" fill="#28B446"/>
<path d="M19.6596 2.76263L15.7721 5.94525C14.6782 5.26153 13.3852 4.86656 12 4.86656C8.87207 4.86656 6.21425 6.88018 5.25163 9.68175L1.34239 6.48132H1.34174C3.33889 2.63077 7.36217 0 12 0C14.9116 0 17.5813 1.03716 19.6596 2.76263Z" fill="#F14336"/>
</svg>
