<svg width="20" height="20" viewBox="0 0 20 20" fill="none" xmlns="http://www.w3.org/2000/svg">
<path fill-rule="evenodd" clip-rule="evenodd" d="M14.3341 0.750107H5.66509C2.64409 0.750107 0.750092 2.88911 0.750092 5.91611V14.0841C0.750092 17.1111 2.63509 19.2501 5.66509 19.2501H14.3331C17.3641 19.2501 19.2501 17.1111 19.2501 14.0841V5.91611C19.2501 2.88911 17.3641 0.750107 14.3341 0.750107Z" stroke="#0066FF" stroke-width="1.5" stroke-linecap="round" stroke-linejoin="round"/>
<path fill-rule="evenodd" clip-rule="evenodd" d="M8.68908 10.0001C8.68908 11.0231 7.86008 11.8521 6.83708 11.8521C5.81408 11.8521 4.98508 11.0231 4.98508 10.0001C4.98508 8.9771 5.81408 8.1481 6.83708 8.1481H6.84008C7.86108 8.1491 8.68908 8.9781 8.68908 10.0001Z" stroke="#0066FF" stroke-width="1.5" stroke-linecap="round" stroke-linejoin="round"/>
<path d="M8.69199 10.0001H15.01V11.8521" stroke="#0066FF" stroke-width="1.5" stroke-linecap="round" stroke-linejoin="round"/>
<path d="M12.1818 11.8522V10.0002" stroke="#0066FF" stroke-width="1.5" stroke-linecap="round" stroke-linejoin="round"/>
</svg>
