<svg width="24" height="24" viewBox="0 0 24 24" fill="none" xmlns="http://www.w3.org/2000/svg">
<path d="M22.4184 1.38683C22.0589 1.16213 21.6544 1.07225 21.1601 1.11719C20.3062 1.25201 19.5872 1.56659 18.9131 2.06093C18.3289 2.51032 17.6548 3.0496 16.8908 3.67876C16.5313 3.99334 16.1717 4.30791 15.8122 4.62249C15.5875 4.84719 15.3628 5.02695 15.1381 5.25165C14.9134 5.43141 14.7337 5.52129 14.464 5.47635C14.3292 5.43141 14.1495 5.38647 13.9697 5.34153L5.56596 2.19575C5.29632 2.10587 5.02668 2.01599 4.71211 1.92611C4.08295 1.74635 3.63355 1.92611 3.36391 2.15081C2.86958 2.51032 2.46512 2.95972 2.19548 3.45406C1.8809 3.9484 1.97078 4.48767 2.42018 4.89213C2.59994 5.07189 2.7797 5.20671 2.91452 5.29659C4.44247 6.37514 6.01536 7.40876 7.54331 8.48731C8.12753 8.89177 8.6668 9.25129 9.07126 9.74563C9.16114 9.88044 9.25102 9.97032 9.3409 10.1051L6.41982 12.8914C6.10524 13.206 5.79066 13.4756 5.47608 13.7902C5.43114 13.7902 5.3862 13.7453 5.34126 13.7453L4.84692 13.5206C4.44247 13.3408 4.08295 13.1161 3.67849 12.9363C3.18415 12.7116 2.64488 12.7566 2.24042 13.1161C2.01572 13.2959 1.79102 13.5206 1.56632 13.7453C1.16187 14.1497 1.11693 14.6441 1.47644 15.0935C1.56632 15.2283 1.6562 15.3182 1.74608 15.408L2.59994 16.4866C3.58861 17.7898 4.62223 19.0931 5.65584 20.3514C5.79066 20.5312 5.92548 20.666 6.10524 20.7559C6.285 20.8457 6.64452 21.0704 7.09391 20.9356C7.63319 20.7559 8.03765 20.3963 8.21741 19.8571C8.39717 19.4077 8.44211 18.9133 8.26235 18.3741L8.17247 17.9696C8.08259 17.6101 7.99271 17.2506 7.90283 16.891C9.1162 15.9473 10.3296 15.0485 11.498 14.1048L12.0822 13.6554L12.217 13.8801C12.5316 14.3744 12.8013 14.8688 12.981 15.408L15.0482 20.7109C15.1831 21.0255 15.2729 21.3401 15.4078 21.6097C15.6325 22.1041 15.992 22.3737 16.4414 22.3737C16.6211 22.3737 16.8009 22.3288 16.9807 22.2389C17.1155 22.1939 17.2503 22.149 17.3402 22.0591C18.0592 21.6996 18.5086 21.2053 18.6884 20.5312C18.8232 19.9919 18.7782 19.4976 18.7333 19.138L17.6548 11.2736C17.5649 10.6444 17.475 9.97032 17.3851 9.34117C17.3402 9.02659 17.4301 8.84683 17.6548 8.66707L18.5985 7.85816C19.3625 7.229 20.0815 6.59984 20.8455 5.97069C21.4746 5.43141 21.8791 4.93707 22.2386 4.39779C22.5082 3.99334 22.7779 3.499 22.9127 2.95972C23.1374 2.3755 22.9127 1.74635 22.4184 1.38683ZM22.0589 2.77996C21.924 3.22936 21.6993 3.63382 21.4746 3.99334C21.205 4.44273 20.8005 4.89213 20.2613 5.34153C19.5422 5.97069 18.7782 6.59984 18.0143 7.229L17.1155 7.99297C16.6211 8.35249 16.3964 8.89177 16.4863 9.52093C16.5762 10.1501 16.6661 10.7792 16.756 11.4533L17.8345 19.3178C17.8795 19.7672 17.8795 20.0818 17.7896 20.3514C17.6548 20.7559 17.3851 21.0704 16.9357 21.2951C16.8458 21.3401 16.756 21.385 16.6211 21.43C16.3515 21.5198 16.2616 21.4749 16.1717 21.2502C16.0369 20.9806 15.947 20.666 15.8122 20.3514L13.8349 15.0485C13.6102 14.4643 13.2956 13.925 12.981 13.3857L12.7114 12.9363L12.3069 12.3521L10.9138 13.3857C9.65548 14.3295 8.39717 15.3182 7.18379 16.2619C6.86921 16.4866 6.91415 16.7562 6.95909 16.936C7.04897 17.3404 7.18379 17.7449 7.27367 18.1494L7.36355 18.5538C7.45343 18.9133 7.45343 19.2279 7.31861 19.4976C7.18379 19.7672 7.00403 19.9469 6.68946 20.0368C6.68946 20.0368 6.59958 20.0368 6.46476 19.9469C6.37488 19.902 6.285 19.8121 6.24006 19.7222C5.20644 18.419 4.21777 17.1607 3.22909 15.8574L2.37524 14.7789C2.28536 14.689 2.24042 14.5991 2.15054 14.4643C2.1056 14.4194 2.1056 14.3744 2.1056 14.3744C2.1056 14.3744 2.15054 14.3295 2.19548 14.2845C2.37524 14.1048 2.59994 13.8801 2.7797 13.7453C2.91452 13.6104 3.09427 13.6104 3.27403 13.7003C3.67849 13.8801 4.03801 14.0598 4.44247 14.2845L4.9368 14.5092C5.02668 14.5542 5.11656 14.5991 5.20644 14.6441C5.43114 14.7789 5.70078 14.7339 5.92548 14.5542C6.285 14.1947 6.64452 13.8801 7.00403 13.5206L10.1049 10.5995L10.4644 10.24L10.2397 9.92538C10.1948 9.8355 10.1498 9.79056 10.1049 9.70068C9.97006 9.52093 9.88018 9.34117 9.74536 9.20635C9.25102 8.62213 8.6668 8.17273 8.03765 7.76828C6.5097 6.73466 4.9368 5.65611 3.40885 4.57755C3.27403 4.48767 3.13921 4.39779 3.0044 4.26297C2.86958 4.12816 2.86958 4.08322 2.95946 3.99334C3.18415 3.58888 3.54367 3.22936 3.94813 2.91478C4.03801 2.8249 4.17283 2.77996 4.48741 2.86984C4.80199 2.95972 5.07162 3.0496 5.29632 3.13948L13.7001 6.28526C13.9248 6.37514 14.1495 6.42008 14.3292 6.46502C14.8236 6.5549 15.3179 6.42008 15.7223 6.06056C15.947 5.83587 16.1717 5.65611 16.3964 5.43141C16.756 5.11683 17.1155 4.80225 17.475 4.48767C18.239 3.85852 18.8681 3.31924 19.4523 2.86984C19.9916 2.46538 20.6208 2.19575 21.2949 2.10587C21.5196 2.06093 21.6993 2.10587 21.8791 2.19575C22.0589 2.24069 22.1487 2.51032 22.0589 2.77996Z" fill="#0066FF" stroke="#0066FF" stroke-width="0.5"/>
</svg>
