<svg width="34" height="34" viewBox="0 0 34 34" fill="none" xmlns="http://www.w3.org/2000/svg">
<path d="M16.9999 20.8185L17.5303 20.2881L16.9999 19.7578L16.4696 20.2881L16.9999 20.8185ZM19.5456 23.3641L19.0152 23.8944L19.5456 23.3641ZM20.8183 17.0001L20.288 16.4698L19.7577 17.0001L20.288 17.5304L20.8183 17.0001ZM19.5455 10.6361L20.0759 11.1665L20.0759 11.1665L19.5455 10.6361ZM16.9999 13.1817L16.4696 13.7121L16.9999 14.2424L17.5303 13.7121L16.9999 13.1817ZM14.4544 10.6362L13.9241 11.1665L14.4544 10.6362ZM13.1816 17.0001L13.7119 17.5304L14.2422 17.0001L13.7119 16.4698L13.1816 17.0001ZM11.1663 22.8337C10.4048 22.0722 10.4048 20.8375 11.1663 20.076L10.1057 19.0153C8.75835 20.3626 8.75835 22.5471 10.1057 23.8944L11.1663 22.8337ZM13.924 22.8337C13.1625 23.5952 11.9278 23.5952 11.1663 22.8337L10.1057 23.8944C11.453 25.2417 13.6374 25.2417 14.9847 23.8944L13.924 22.8337ZM16.4696 20.2881L13.924 22.8337L14.9847 23.8944L17.5303 21.3488L16.4696 20.2881ZM20.0759 22.8338L17.5303 20.2881L16.4696 21.3488L19.0152 23.8944L20.0759 22.8338ZM22.8336 22.8338C22.0721 23.5953 20.8374 23.5953 20.0759 22.8338L19.0152 23.8944C20.3625 25.2418 22.547 25.2418 23.8943 23.8944L22.8336 22.8338ZM22.8336 20.0761C23.5951 20.8376 23.5951 22.0723 22.8336 22.8338L23.8943 23.8944C25.2416 22.5471 25.2416 20.3627 23.8943 19.0154L22.8336 20.0761ZM20.288 17.5304L22.8336 20.0761L23.8943 19.0154L21.3486 16.4698L20.288 17.5304ZM22.8336 13.9242L20.288 16.4698L21.3486 17.5304L23.8942 14.9848L22.8336 13.9242ZM22.8336 11.1665C23.5951 11.928 23.5951 13.1626 22.8336 13.9242L23.8942 14.9848C25.2415 13.6375 25.2415 11.4531 23.8942 10.1058L22.8336 11.1665ZM20.0759 11.1665C20.8374 10.4049 22.0721 10.4049 22.8336 11.1665L23.8942 10.1058C22.5469 8.75849 20.3625 8.75849 19.0152 10.1058L20.0759 11.1665ZM17.5303 13.7121L20.0759 11.1665L19.0152 10.1058L16.4696 12.6514L17.5303 13.7121ZM13.9241 11.1665L16.4696 13.7121L17.5303 12.6514L14.9847 10.1059L13.9241 11.1665ZM11.1664 11.1665C11.9279 10.405 13.1626 10.405 13.9241 11.1665L14.9847 10.1059C13.6374 8.75855 11.453 8.75855 10.1057 10.1059L11.1664 11.1665ZM11.1664 13.9242C10.4048 13.1627 10.4048 11.928 11.1664 11.1665L10.1057 10.1059C8.75839 11.4532 8.75839 13.6376 10.1057 14.9849L11.1664 13.9242ZM13.7119 16.4698L11.1664 13.9242L10.1057 14.9849L12.6512 17.5304L13.7119 16.4698ZM11.1663 20.076L13.7119 17.5304L12.6512 16.4698L10.1057 19.0153L11.1663 20.076Z" fill="#F8FAFD"/>
</svg>
