<svg width="80" height="81" viewBox="0 0 80 81" fill="none" xmlns="http://www.w3.org/2000/svg">
<g filter="url(#filter0_d_337_2591)">
<circle cx="40" cy="25" r="25" fill="#133B77"/>
</g>
<path d="M39.9999 28.8185L40.5303 28.2881L39.9999 27.7578L39.4696 28.2881L39.9999 28.8185ZM42.5456 31.3641L42.0152 31.8944L42.5456 31.3641ZM43.8183 25.0001L43.288 24.4698L42.7577 25.0001L43.288 25.5304L43.8183 25.0001ZM42.5455 18.6361L43.0759 19.1665L43.0759 19.1665L42.5455 18.6361ZM39.9999 21.1817L39.4696 21.7121L39.9999 22.2424L40.5303 21.7121L39.9999 21.1817ZM37.4544 18.6362L36.9241 19.1665L37.4544 18.6362ZM36.1816 25.0001L36.7119 25.5304L37.2422 25.0001L36.7119 24.4698L36.1816 25.0001ZM34.1663 30.8337C33.4048 30.0722 33.4048 28.8375 34.1663 28.076L33.1057 27.0153C31.7583 28.3626 31.7583 30.5471 33.1057 31.8944L34.1663 30.8337ZM36.924 30.8337C36.1625 31.5952 34.9278 31.5952 34.1663 30.8337L33.1057 31.8944C34.453 33.2417 36.6374 33.2417 37.9847 31.8944L36.924 30.8337ZM39.4696 28.2881L36.924 30.8337L37.9847 31.8944L40.5303 29.3488L39.4696 28.2881ZM43.0759 30.8338L40.5303 28.2881L39.4696 29.3488L42.0152 31.8944L43.0759 30.8338ZM45.8336 30.8338C45.0721 31.5953 43.8374 31.5953 43.0759 30.8338L42.0152 31.8944C43.3625 33.2418 45.547 33.2418 46.8943 31.8944L45.8336 30.8338ZM45.8336 28.0761C46.5951 28.8376 46.5951 30.0723 45.8336 30.8338L46.8943 31.8944C48.2416 30.5471 48.2416 28.3627 46.8943 27.0154L45.8336 28.0761ZM43.288 25.5304L45.8336 28.0761L46.8943 27.0154L44.3486 24.4698L43.288 25.5304ZM45.8336 21.9242L43.288 24.4698L44.3486 25.5304L46.8942 22.9848L45.8336 21.9242ZM45.8336 19.1665C46.5951 19.928 46.5951 21.1626 45.8336 21.9242L46.8942 22.9848C48.2415 21.6375 48.2415 19.4531 46.8942 18.1058L45.8336 19.1665ZM43.0759 19.1665C43.8374 18.4049 45.0721 18.4049 45.8336 19.1665L46.8942 18.1058C45.5469 16.7585 43.3625 16.7585 42.0152 18.1058L43.0759 19.1665ZM40.5303 21.7121L43.0759 19.1665L42.0152 18.1058L39.4696 20.6514L40.5303 21.7121ZM36.9241 19.1665L39.4696 21.7121L40.5303 20.6514L37.9847 18.1059L36.9241 19.1665ZM34.1664 19.1665C34.9279 18.405 36.1626 18.405 36.9241 19.1665L37.9847 18.1059C36.6374 16.7586 34.453 16.7586 33.1057 18.1059L34.1664 19.1665ZM34.1664 21.9242C33.4048 21.1627 33.4048 19.928 34.1664 19.1665L33.1057 18.1059C31.7584 19.4532 31.7584 21.6376 33.1057 22.9849L34.1664 21.9242ZM36.7119 24.4698L34.1664 21.9242L33.1057 22.9849L35.6512 25.5304L36.7119 24.4698ZM34.1663 28.076L36.7119 25.5304L35.6512 24.4698L33.1057 27.0153L34.1663 28.076Z" fill="#F8FAFD"/>
<defs>
<filter id="filter0_d_337_2591" x="0" y="0" width="80" height="81" filterUnits="userSpaceOnUse" color-interpolation-filters="sRGB">
<feFlood flood-opacity="0" result="BackgroundImageFix"/>
<feColorMatrix in="SourceAlpha" type="matrix" values="0 0 0 0 0 0 0 0 0 0 0 0 0 0 0 0 0 0 127 0" result="hardAlpha"/>
<feOffset dy="16"/>
<feGaussianBlur stdDeviation="7.5"/>
<feColorMatrix type="matrix" values="0 0 0 0 0.0745098 0 0 0 0 0.231373 0 0 0 0 0.466667 0 0 0 0.22 0"/>
<feBlend mode="normal" in2="BackgroundImageFix" result="effect1_dropShadow_337_2591"/>
<feBlend mode="normal" in="SourceGraphic" in2="effect1_dropShadow_337_2591" result="shape"/>
</filter>
</defs>
</svg>
