<svg width="24" height="24" viewBox="0 0 24 24" fill="none" xmlns="http://www.w3.org/2000/svg">
<g clip-path="url(#clip0_65_1177)">
<path d="M23.2969 21.7841C22.5209 21.7841 22.1708 21.6098 21.7275 21.389C21.5446 21.2979 21.3528 21.2026 21.1313 21.1176L23.5062 14.87C23.691 14.3837 23.6603 13.8397 23.422 13.3773C23.1836 12.915 22.7582 12.5744 22.255 12.4429L20.6197 12.0156V7.11122C20.6197 6.08194 19.7823 5.24456 18.753 5.24456H15.5257V3.42985C15.5257 1.98516 14.3503 0.809814 12.9056 0.809814H11.0944C9.64973 0.809814 8.47439 1.98516 8.47439 3.42985V5.24452H5.247C4.21772 5.24452 3.38034 6.08189 3.38034 7.11117V12.0156L1.74506 12.4429C1.24177 12.5744 0.816375 12.915 0.578062 13.3773C0.33975 13.8397 0.309 14.3837 0.493875 14.87L2.86875 21.1177C2.64731 21.2027 2.4555 21.298 2.27264 21.3891C1.82934 21.6098 1.47923 21.7841 0.703125 21.7841C0.314812 21.7841 0 22.0989 0 22.4873C0 22.8756 0.314812 23.1904 0.703125 23.1904C1.80994 23.1904 2.38875 22.9022 2.89941 22.6479C3.3427 22.4272 3.69281 22.2529 4.46892 22.2529C5.24503 22.2529 5.59514 22.4272 6.03844 22.6479C6.54909 22.9022 7.12791 23.1904 8.23472 23.1904C9.34148 23.1904 9.92025 22.9022 10.431 22.6479C10.8742 22.4272 11.2243 22.2529 12.0003 22.2529C12.7763 22.2529 13.1264 22.4272 13.5697 22.6479C14.0803 22.9022 14.6591 23.1904 15.7658 23.1904C16.8726 23.1904 17.4514 22.9022 17.962 22.6479C18.4053 22.4272 18.7554 22.2529 19.5314 22.2529C20.3074 22.2529 20.6575 22.4272 21.1007 22.6479C21.6114 22.9022 22.1902 23.1904 23.2969 23.1904C23.6852 23.1904 24 22.8756 24 22.4873C24 22.0989 23.6852 21.7841 23.2969 21.7841ZM9.88064 3.42985C9.88064 2.76056 10.4251 2.21606 11.0944 2.21606H12.9056C13.5749 2.21606 14.1194 2.76056 14.1194 3.42985V5.24452H9.88064V3.42985ZM4.78655 7.11122C4.78655 6.85735 4.99308 6.65081 5.24695 6.65081H18.753C19.0069 6.65081 19.2134 6.85735 19.2134 7.11122V11.6482L12.1777 9.80986C12.0612 9.77944 11.9387 9.77944 11.8222 9.80986L4.7865 11.6482V7.11122H4.78655ZM17.3352 21.3891C16.8919 21.6098 16.5418 21.7841 15.7658 21.7841C14.9899 21.7841 14.6398 21.6098 14.1965 21.389C13.6859 21.1348 13.1071 20.8466 12.0003 20.8466C10.8936 20.8466 10.3148 21.1348 9.80409 21.389C9.36084 21.6097 9.01073 21.7841 8.23472 21.7841C7.45866 21.7841 7.1085 21.6098 6.66525 21.389C6.15459 21.1348 5.57578 20.8466 4.46897 20.8466C4.40114 20.8466 4.33533 20.8477 4.27134 20.8498L1.8083 14.3703C1.74919 14.2148 1.79527 14.0852 1.82798 14.0217C1.8607 13.9583 1.93959 13.8455 2.10052 13.8035L12 11.2169L21.8995 13.8035C22.0604 13.8455 22.1393 13.9583 22.172 14.0217C22.2047 14.0852 22.2508 14.2148 22.1917 14.3704L19.7287 20.8498C19.6648 20.8478 19.5991 20.8466 19.5314 20.8466C18.4246 20.8466 17.8458 21.1348 17.3352 21.3891Z" fill="#0066FF"/>
<path d="M18.5005 14.8153L12.1778 13.1632C12.0613 13.1328 11.9388 13.1328 11.8223 13.1632L5.49955 14.8153C5.12385 14.9134 4.89885 15.2976 4.997 15.6733C5.09516 16.049 5.47935 16.274 5.85505 16.1758L12 14.5702L18.145 16.1758C18.2046 16.1915 18.2644 16.1989 18.3232 16.1989C18.6354 16.1989 18.9205 15.9894 19.003 15.6733C19.1012 15.2976 18.8762 14.9134 18.5005 14.8153Z" fill="#0066FF"/>
</g>
<defs>
<clipPath id="clip0_65_1177">
<rect width="24" height="24" fill="white"/>
</clipPath>
</defs>
</svg>
