<svg width="24" height="24" viewBox="0 0 24 24" fill="none" xmlns="http://www.w3.org/2000/svg">
<path d="M11.2221 2.32846L4.22206 5.28402C3.4814 5.59674 3 6.32255 3 7.12652V16.2366C3 17.0701 3.5169 17.8162 4.29725 18.1091L11.2972 20.7362C11.7503 20.9063 12.2497 20.9063 12.7028 20.7362L19.7028 18.1091C20.4831 17.8162 21 17.0701 21 16.2366V7.12652C21 6.32256 20.5186 5.59674 19.7779 5.28402L12.7779 2.32847C12.2806 2.11846 11.7194 2.11846 11.2221 2.32846Z" stroke="#F8FAFD" stroke-width="1.5"/>
<path d="M3 6L12 9.75M12 9.75L21 6M12 9.75V21" stroke="#F8FAFD" stroke-width="1.5"/>
</svg>
