<svg width="26" height="24" viewBox="0 0 26 24" fill="none" xmlns="http://www.w3.org/2000/svg">
<path d="M10.2401 19.7145C10.426 19.8711 10.5328 20.0974 10.5328 20.3384V21.3382C10.5328 21.6039 10.2233 21.7541 10.0096 21.5921C9.92872 21.5307 8.0053 20.0652 6.05482 17.9637C3.36421 15.0646 2 12.4622 2 10.2292V10.0078C2 5.5923 5.82778 2 10.5328 2C15.0094 2 18.692 5.25214 19.0388 9.37121C19.0783 9.84074 18.9528 10.1129 18.2767 10.1151C17.6006 10.1172 17.367 9.37121 17.367 9.37121C17.0252 6.11497 14.0908 3.5625 10.5328 3.5625C6.74589 3.5625 3.66492 6.45393 3.66492 10.0078V10.2292C3.66492 13.805 8.31705 18.0944 10.2401 19.7145ZM10.5328 6.6875C12.4836 6.6875 14.0707 8.17704 14.0707 10.0078C14.0707 11.8386 12.4836 13.3282 10.5328 13.3282C8.58195 13.3282 6.99477 11.8386 6.99477 10.0078C6.99477 8.17704 8.58195 6.6875 10.5328 6.6875ZM10.5328 8.25C9.4999 8.25 8.6597 9.03852 8.6597 10.0078C8.6597 10.977 9.4999 11.7657 10.5328 11.7657C11.5654 11.7657 12.4058 10.977 12.4058 10.0078C12.4058 9.03852 11.5654 8.25 10.5328 8.25ZM22.6701 17.3329C22.4299 17.58 22.0352 17.5978 21.7731 17.3734V19.8818C21.7731 21.0498 20.7604 22 19.5158 22H14.2446C13.0001 22 11.9874 21.0498 11.9874 19.8818V17.3734C11.7253 17.5978 11.3306 17.58 11.0904 17.3329L10.9856 17.2251C10.6654 16.8957 10.6899 16.3694 11.0393 16.0703L16.8802 11.0694L22.7212 16.0703C23.0706 16.3694 23.0951 16.8957 22.7749 17.2251L22.6701 17.3329ZM20.1081 15.9479L16.8802 13.1844L13.6523 15.9479V19.8816C13.6523 20.1882 13.918 20.4375 14.2446 20.4375H19.5158C19.8425 20.4375 20.1081 20.1882 20.1081 19.8816V15.9479Z" fill="#0066FF"/>
</svg>
