<svg width="24" height="24" viewBox="0 0 24 24" fill="none" xmlns="http://www.w3.org/2000/svg">
<path d="M9.24279 13.1119L6.53387 10.3983L6.53386 10.3983C5.7023 9.56534 4.35457 9.56545 3.52296 10.3982L3.52281 10.3983L2.87362 11.0488C2.8735 11.0489 2.87339 11.049 2.87327 11.0491C2.04187 11.8807 2.04268 13.2297 2.87308 14.0615C2.87309 14.0615 2.8731 14.0616 2.87312 14.0616L8.0607 19.2586C8.06093 19.2589 8.06115 19.2591 8.06137 19.2593C8.37533 19.5753 8.80168 19.75 9.24278 19.75C9.68384 19.75 10.1101 19.5753 10.4241 19.2594C10.4243 19.2591 10.4246 19.2589 10.4249 19.2586L21.1265 8.53838L21.1269 8.53795L9.24279 13.1119ZM9.24279 13.1119L17.4661 4.87468L17.4662 4.87459C18.2976 4.04208 19.6465 4.04136 20.4775 4.87509L21.1269 5.52568L9.24279 13.1119Z" stroke="#0FC494" stroke-width="1.5"/>
</svg>
