<svg width="24" height="24" viewBox="0 0 24 24" fill="none" xmlns="http://www.w3.org/2000/svg">
<path d="M14.0603 21H6.96984C5.33222 21 4 19.7384 4 18.1875V8.66016C4 7.1093 5.33222 5.84766 6.96984 5.84766H14.0603C15.6979 5.84766 17.0302 7.1093 17.0302 8.66016V18.1875C17.0302 19.7384 15.6979 21 14.0603 21ZM6.96984 7.25391C6.1511 7.25391 5.48492 7.8848 5.48492 8.66016V18.1875C5.48492 18.9629 6.1511 19.5938 6.96984 19.5938H14.0603C14.8791 19.5938 15.5452 18.9629 15.5452 18.1875V8.66016C15.5452 7.8848 14.8791 7.25391 14.0603 7.25391H6.96984ZM20 16.4297V5.8125C20 4.26164 18.6678 3 17.0302 3H8.78886C8.37877 3 8.0464 3.31476 8.0464 3.70312C8.0464 4.09149 8.37877 4.40625 8.78886 4.40625H17.0302C17.8489 4.40625 18.5151 5.03714 18.5151 5.8125V16.4297C18.5151 16.8181 18.8474 17.1328 19.2575 17.1328C19.6676 17.1328 20 16.8181 20 16.4297Z" fill="#0FC494"/>
</svg>
