<svg width="29" height="16" viewBox="0 0 29 16" fill="none" xmlns="http://www.w3.org/2000/svg">
<path d="M5.048 12.456C5.61333 12.3813 6.04 12.192 6.328 11.888C6.62133 11.5787 6.768 11.176 6.768 10.68C6.768 10.4773 6.73067 10.3013 6.656 10.152C6.58667 9.99733 6.48533 9.86133 6.352 9.744C6.224 9.62667 6.072 9.52533 5.896 9.44C5.72 9.35467 5.528 9.27467 5.32 9.2L5.048 12.456ZM4.536 4C4.23733 4.03733 3.984 4.10133 3.776 4.192C3.568 4.27733 3.39733 4.384 3.264 4.512C3.13067 4.64 3.032 4.784 2.968 4.944C2.90933 5.104 2.88 5.272 2.88 5.448C2.88 5.65067 2.91467 5.82933 2.984 5.984C3.05867 6.13333 3.15733 6.26933 3.28 6.392C3.408 6.50933 3.55733 6.616 3.728 6.712C3.89867 6.80267 4.08533 6.888 4.288 6.968L4.536 4ZM5.472 7.352C5.856 7.46933 6.23733 7.6 6.616 7.744C6.99467 7.88267 7.33333 8.064 7.632 8.288C7.936 8.512 8.18133 8.792 8.368 9.128C8.55467 9.45867 8.648 9.87467 8.648 10.376C8.648 10.872 8.56533 11.3387 8.4 11.776C8.23467 12.208 7.992 12.592 7.672 12.928C7.352 13.2587 6.96 13.5307 6.496 13.744C6.032 13.952 5.50133 14.0747 4.904 14.112L4.808 15.288C4.80267 15.4107 4.74933 15.5227 4.648 15.624C4.552 15.7307 4.42933 15.784 4.28 15.784H3.552L3.696 14.072C3.072 13.9867 2.48533 13.816 1.936 13.56C1.38667 13.304 0.92 12.9867 0.536 12.608L1.144 11.704C1.19733 11.624 1.26667 11.56 1.352 11.512C1.44267 11.4587 1.53867 11.432 1.64 11.432C1.75733 11.432 1.88267 11.4747 2.016 11.56C2.14933 11.64 2.30133 11.736 2.472 11.848C2.64267 11.9547 2.83733 12.064 3.056 12.176C3.27467 12.288 3.53333 12.3707 3.832 12.424L4.128 8.848C3.74933 8.74133 3.37333 8.616 3 8.472C2.632 8.328 2.29867 8.13867 2 7.904C1.70667 7.664 1.46933 7.36267 1.288 7C1.10667 6.63733 1.016 6.184 1.016 5.64C1.016 5.23467 1.096 4.84 1.256 4.456C1.416 4.06667 1.65067 3.72 1.96 3.416C2.27467 3.112 2.65867 2.86133 3.112 2.664C3.56533 2.46667 4.08533 2.35467 4.672 2.328L4.76 1.32C4.77067 1.192 4.824 1.07733 4.92 0.976C5.016 0.874666 5.14133 0.823999 5.296 0.823999H6.024L5.896 2.392C6.46133 2.48267 6.94933 2.64533 7.36 2.88C7.77067 3.10933 8.12533 3.368 8.424 3.656L7.944 4.384C7.87467 4.49067 7.80267 4.57067 7.728 4.624C7.65333 4.67733 7.56267 4.704 7.456 4.704C7.376 4.704 7.28 4.68 7.168 4.632C7.056 4.57867 6.93067 4.51733 6.792 4.448C6.65333 4.37333 6.496 4.29867 6.32 4.224C6.14933 4.14933 5.96 4.088 5.752 4.04L5.472 7.352Z" fill="#0FC494"/>
<path d="M14.8293 12.456C15.3946 12.3813 15.8213 12.192 16.1093 11.888C16.4026 11.5787 16.5493 11.176 16.5493 10.68C16.5493 10.4773 16.5119 10.3013 16.4373 10.152C16.3679 9.99733 16.2666 9.86133 16.1333 9.744C16.0053 9.62667 15.8533 9.52533 15.6773 9.44C15.5013 9.35467 15.3093 9.27467 15.1013 9.2L14.8293 12.456ZM14.3173 4C14.0186 4.03733 13.7653 4.10133 13.5573 4.192C13.3493 4.27733 13.1786 4.384 13.0453 4.512C12.9119 4.64 12.8133 4.784 12.7493 4.944C12.6906 5.104 12.6613 5.272 12.6613 5.448C12.6613 5.65067 12.6959 5.82933 12.7653 5.984C12.8399 6.13333 12.9386 6.26933 13.0613 6.392C13.1893 6.50933 13.3386 6.616 13.5093 6.712C13.6799 6.80267 13.8666 6.888 14.0693 6.968L14.3173 4ZM15.2533 7.352C15.6373 7.46933 16.0186 7.6 16.3973 7.744C16.7759 7.88267 17.1146 8.064 17.4133 8.288C17.7173 8.512 17.9626 8.792 18.1493 9.128C18.3359 9.45867 18.4293 9.87467 18.4293 10.376C18.4293 10.872 18.3466 11.3387 18.1813 11.776C18.0159 12.208 17.7733 12.592 17.4533 12.928C17.1333 13.2587 16.7413 13.5307 16.2773 13.744C15.8133 13.952 15.2826 14.0747 14.6853 14.112L14.5893 15.288C14.5839 15.4107 14.5306 15.5227 14.4293 15.624C14.3333 15.7307 14.2106 15.784 14.0613 15.784H13.3333L13.4773 14.072C12.8533 13.9867 12.2666 13.816 11.7173 13.56C11.1679 13.304 10.7013 12.9867 10.3173 12.608L10.9253 11.704C10.9786 11.624 11.0479 11.56 11.1333 11.512C11.2239 11.4587 11.3199 11.432 11.4213 11.432C11.5386 11.432 11.6639 11.4747 11.7973 11.56C11.9306 11.64 12.0826 11.736 12.2533 11.848C12.4239 11.9547 12.6186 12.064 12.8373 12.176C13.0559 12.288 13.3146 12.3707 13.6133 12.424L13.9093 8.848C13.5306 8.74133 13.1546 8.616 12.7813 8.472C12.4133 8.328 12.0799 8.13867 11.7812 7.904C11.4879 7.664 11.2506 7.36267 11.0693 7C10.8879 6.63733 10.7973 6.184 10.7973 5.64C10.7973 5.23467 10.8773 4.84 11.0373 4.456C11.1973 4.06667 11.4319 3.72 11.7413 3.416C12.0559 3.112 12.4399 2.86133 12.8933 2.664C13.3466 2.46667 13.8666 2.35467 14.4533 2.328L14.5413 1.32C14.5519 1.192 14.6053 1.07733 14.7013 0.976C14.7973 0.874666 14.9226 0.823999 15.0773 0.823999H15.8053L15.6773 2.392C16.2426 2.48267 16.7306 2.64533 17.1413 2.88C17.5519 3.10933 17.9066 3.368 18.2053 3.656L17.7253 4.384C17.6559 4.49067 17.5839 4.57067 17.5093 4.624C17.4346 4.67733 17.3439 4.704 17.2373 4.704C17.1573 4.704 17.0613 4.68 16.9493 4.632C16.8373 4.57867 16.7119 4.51733 16.5733 4.448C16.4346 4.37333 16.2773 4.29867 16.1013 4.224C15.9306 4.14933 15.7413 4.088 15.5333 4.04L15.2533 7.352ZM24.6105 12.456C25.1758 12.3813 25.6025 12.192 25.8905 11.888C26.1838 11.5787 26.3305 11.176 26.3305 10.68C26.3305 10.4773 26.2932 10.3013 26.2185 10.152C26.1492 9.99733 26.0478 9.86133 25.9145 9.744C25.7865 9.62667 25.6345 9.52533 25.4585 9.44C25.2825 9.35467 25.0905 9.27467 24.8825 9.2L24.6105 12.456ZM24.0985 4C23.7998 4.03733 23.5465 4.10133 23.3385 4.192C23.1305 4.27733 22.9598 4.384 22.8265 4.512C22.6932 4.64 22.5945 4.784 22.5305 4.944C22.4718 5.104 22.4425 5.272 22.4425 5.448C22.4425 5.65067 22.4772 5.82933 22.5465 5.984C22.6212 6.13333 22.7198 6.26933 22.8425 6.392C22.9705 6.50933 23.1198 6.616 23.2905 6.712C23.4612 6.80267 23.6478 6.888 23.8505 6.968L24.0985 4ZM25.0345 7.352C25.4185 7.46933 25.7998 7.6 26.1785 7.744C26.5572 7.88267 26.8958 8.064 27.1945 8.288C27.4985 8.512 27.7438 8.792 27.9305 9.128C28.1172 9.45867 28.2105 9.87467 28.2105 10.376C28.2105 10.872 28.1278 11.3387 27.9625 11.776C27.7972 12.208 27.5545 12.592 27.2345 12.928C26.9145 13.2587 26.5225 13.5307 26.0585 13.744C25.5945 13.952 25.0638 14.0747 24.4665 14.112L24.3705 15.288C24.3652 15.4107 24.3118 15.5227 24.2105 15.624C24.1145 15.7307 23.9918 15.784 23.8425 15.784H23.1145L23.2585 14.072C22.6345 13.9867 22.0478 13.816 21.4985 13.56C20.9492 13.304 20.4825 12.9867 20.0985 12.608L20.7065 11.704C20.7598 11.624 20.8292 11.56 20.9145 11.512C21.0052 11.4587 21.1012 11.432 21.2025 11.432C21.3198 11.432 21.4452 11.4747 21.5785 11.56C21.7118 11.64 21.8638 11.736 22.0345 11.848C22.2052 11.9547 22.3998 12.064 22.6185 12.176C22.8372 12.288 23.0958 12.3707 23.3945 12.424L23.6905 8.848C23.3118 8.74133 22.9358 8.616 22.5625 8.472C22.1945 8.328 21.8612 8.13867 21.5625 7.904C21.2692 7.664 21.0318 7.36267 20.8505 7C20.6692 6.63733 20.5785 6.184 20.5785 5.64C20.5785 5.23467 20.6585 4.84 20.8185 4.456C20.9785 4.06667 21.2132 3.72 21.5225 3.416C21.8372 3.112 22.2212 2.86133 22.6745 2.664C23.1278 2.46667 23.6478 2.35467 24.2345 2.328L24.3225 1.32C24.3332 1.192 24.3865 1.07733 24.4825 0.976C24.5785 0.874666 24.7038 0.823999 24.8585 0.823999H25.5865L25.4585 2.392C26.0238 2.48267 26.5118 2.64533 26.9225 2.88C27.3332 3.10933 27.6878 3.368 27.9865 3.656L27.5065 4.384C27.4372 4.49067 27.3652 4.57067 27.2905 4.624C27.2158 4.67733 27.1252 4.704 27.0185 4.704C26.9385 4.704 26.8425 4.68 26.7305 4.632C26.6185 4.57867 26.4932 4.51733 26.3545 4.448C26.2158 4.37333 26.0585 4.29867 25.8825 4.224C25.7118 4.14933 25.5225 4.088 25.3145 4.04L25.0345 7.352Z" fill="#EEF1F5"/>
</svg>
