<svg width="24" height="24" viewBox="0 0 24 24" fill="none" xmlns="http://www.w3.org/2000/svg">
<path d="M12.5556 10.5187H11.4444C10.9545 10.5187 10.5559 10.1584 10.5559 9.71553C10.5559 9.27271 10.9545 8.91243 11.4444 8.91243H13.6665C14.0961 8.91243 14.4444 8.59762 14.4444 8.20931C14.4444 7.82099 14.0961 7.50618 13.6665 7.50618H12.7778V6.70312C12.7778 6.31481 12.4295 6 11.9999 6C11.5703 6 11.222 6.31481 11.222 6.70312V7.51579C9.97803 7.61774 9 8.56518 9 9.71558C9 10.9339 10.0966 11.925 11.4444 11.925H12.5556C13.0455 11.925 13.4441 12.2853 13.4441 12.7281C13.4441 13.1709 13.0456 13.5312 12.5556 13.5312H10.3334C9.90376 13.5312 9.55545 13.846 9.55545 14.2343C9.55545 14.6226 9.90376 14.9374 10.3334 14.9374H11.222V15.7405C11.222 16.1289 11.5703 16.4437 11.9999 16.4437C12.4295 16.4437 12.7778 16.1289 12.7778 15.7405V14.9279C14.0219 14.826 15 13.8785 15 12.728C15 11.5098 13.9035 10.5187 12.5556 10.5187Z" fill="#133B77"/>
<path d="M15 1H9.01596C6.25677 1 4.01912 3.23509 4.01596 5.99428L4 19.9472L6.00816 22L8.01632 19.9472L10.019 21.9944L12.0108 19.9584L14.0081 22L16.0054 19.9583L18.0027 22L20 19.9582V6C20 3.23858 17.7614 1 15 1Z" stroke="#133B77" stroke-width="1.5" stroke-linejoin="round"/>
</svg>
