<svg width="24" height="24" viewBox="0 0 24 24" fill="none" xmlns="http://www.w3.org/2000/svg">
<path d="M18.3627 20.5203H5.3418V21.9999H18.3627V20.5203Z" fill="#133B77"/>
<path d="M14.1951 8.60913H9.63291C9.22427 8.60913 8.89307 8.94034 8.89307 9.34897C8.89307 9.75761 9.22427 10.0888 9.63291 10.0888H14.1951C14.6038 10.0888 14.935 9.75761 14.935 9.34897C14.935 8.94034 14.6038 8.60913 14.1951 8.60913Z" fill="#133B77"/>
<path d="M17.6476 12.0618H9.63291C9.22427 12.0618 8.89307 12.393 8.89307 12.8016C8.89307 13.2102 9.22427 13.5415 9.63291 13.5415H17.6477C18.0563 13.5415 18.3875 13.2102 18.3875 12.8016C18.3875 12.393 18.0563 12.0618 17.6476 12.0618Z" fill="#133B77"/>
<path d="M21.6256 2.0901C21.36 1.97074 21.0495 2.01786 20.8315 2.21045L18.7597 4.04323L16.6855 2.18848C16.4046 1.93717 15.98 1.93717 15.6991 2.18848L13.6276 4.04099L11.5558 2.18848C11.2749 1.93717 10.8505 1.93717 10.5696 2.18848L8.49542 4.04323L6.42367 2.21045C6.20593 2.0181 5.8952 1.97097 5.62959 2.0901C5.36425 2.2097 5.1936 2.47358 5.1936 2.76458V15.9335H2.6782C2.26956 15.9334 1.93835 16.2646 1.93835 16.6733V18.4735C1.93835 20.418 3.52035 22 5.46483 22V20.5203C4.33612 20.5203 3.418 19.602 3.418 18.4735V17.4131H15.0086V18.4735C15.0086 20.418 16.5906 22 18.5351 22C20.4795 22 22.0615 20.418 22.0615 18.4735V2.76454C22.0616 2.47354 21.8909 2.2097 21.6256 2.0901ZM20.5819 18.4735C20.5819 19.602 19.6636 20.5203 18.5351 20.5203C17.4066 20.5203 16.4883 19.602 16.4883 18.4735V16.6733C16.4883 16.2646 16.1571 15.9334 15.7484 15.9334H6.67324V4.40671L8.00814 5.58773C8.28927 5.83632 8.71194 5.83506 8.99134 5.58502L11.0629 3.7325L13.1344 5.58478C13.4153 5.83609 13.8399 5.83609 14.1208 5.58478L16.1925 3.73227L18.2641 5.58478C18.5437 5.83483 18.9664 5.83581 19.2473 5.58749L20.5819 4.40675V18.4735Z" fill="#133B77"/>
</svg>
