<svg width="9" height="15" viewBox="0 0 9 15" fill="none" xmlns="http://www.w3.org/2000/svg">
<path d="M2.64881 10.3075V9.67262C2.64881 8.94511 2.78109 8.33995 3.04564 7.85714C3.31019 7.37434 3.77315 6.875 4.43453 6.35913C5.22156 5.73743 5.72752 5.25463 5.95238 4.91071C6.18386 4.5668 6.2996 4.15675 6.2996 3.68056C6.2996 3.125 6.11442 2.69841 5.74405 2.40079C5.37368 2.10317 4.84127 1.95437 4.14683 1.95437C3.51852 1.95437 2.93651 2.04365 2.40079 2.22222C1.86508 2.40079 1.34259 2.61574 0.833334 2.86706L0 1.12103C1.34259 0.373677 2.78109 0 4.31548 0C5.61177 0 6.64021 0.31746 7.4008 0.952381C8.16138 1.5873 8.54167 2.46362 8.54167 3.58135C8.54167 4.07738 8.46892 4.5205 8.32341 4.91071C8.17791 5.29431 7.95635 5.66138 7.65873 6.0119C7.36773 6.36243 6.86177 6.81878 6.14087 7.38095C5.5258 7.86376 5.11244 8.26389 4.90079 8.58135C4.69577 8.89881 4.59326 9.3254 4.59326 9.86111V10.3075H2.64881ZM2.24206 13.4722C2.24206 12.4735 2.72818 11.9742 3.7004 11.9742C4.17659 11.9742 4.54035 12.1065 4.79167 12.371C5.04299 12.629 5.16865 12.996 5.16865 13.4722C5.16865 13.9418 5.03968 14.3155 4.78175 14.5933C4.53042 14.8644 4.16997 15 3.7004 15C3.23082 15 2.87037 14.8677 2.61905 14.6032C2.36773 14.332 2.24206 13.955 2.24206 13.4722Z" fill="#0066FF"/>
</svg>
