<svg width="80" height="81" viewBox="0 0 80 81" fill="none" xmlns="http://www.w3.org/2000/svg">
<g filter="url(#filter0_d_337_2542)">
<circle cx="40" cy="25" r="25" fill="#0FC494"/>
</g>
<path d="M42.6999 27.7V26.95H41.9499V27.7H42.6999ZM42.6999 22.3H41.9499V23.05H42.6999V22.3ZM37.2999 18.7H38.0499V18.7L37.2999 18.7ZM37.2999 22.3V23.05H38.0499V22.3H37.2999ZM37.2999 27.7H38.0499V26.95H37.2999V27.7ZM39.9999 33.25C38.923 33.25 38.0499 32.377 38.0499 31.3H36.5499C36.5499 33.2054 38.0945 34.75 39.9999 34.75V33.25ZM41.9499 31.3C41.9499 32.377 41.0769 33.25 39.9999 33.25V34.75C41.9053 34.75 43.4499 33.2054 43.4499 31.3H41.9499ZM41.9499 27.7V31.3H43.4499V27.7H41.9499ZM46.3 26.95H42.6999V28.45H46.3V26.95ZM48.25 25C48.25 26.077 47.377 26.95 46.3 26.95V28.45C48.2054 28.45 49.75 26.9054 49.75 25H48.25ZM46.3 23.05C47.377 23.05 48.25 23.9231 48.25 25H49.75C49.75 23.0946 48.2054 21.55 46.3 21.55V23.05ZM42.6999 23.05H46.3V21.55H42.6999V23.05ZM41.9499 18.7V22.3H43.4499V18.7H41.9499ZM39.9999 16.75C41.0769 16.75 41.9499 17.623 41.9499 18.7H43.4499C43.4499 16.7946 41.9053 15.25 39.9999 15.25V16.75ZM38.0499 18.7C38.0499 17.623 38.923 16.75 39.9999 16.75V15.25C38.0945 15.25 36.5499 16.7946 36.5499 18.7L38.0499 18.7ZM38.0499 22.3V18.7H36.5499V22.3H38.0499ZM33.7 23.05H37.2999V21.55H33.7V23.05ZM31.75 25C31.75 23.9231 32.623 23.05 33.7 23.05V21.55C31.7946 21.55 30.25 23.0946 30.25 25H31.75ZM33.7 26.95C32.623 26.95 31.75 26.077 31.75 25H30.25C30.25 26.9054 31.7946 28.45 33.7 28.45V26.95ZM37.2999 26.95H33.7V28.45H37.2999V26.95ZM38.0499 31.3V27.7H36.5499V31.3H38.0499Z" fill="#056249"/>
<defs>
<filter id="filter0_d_337_2542" x="0" y="0" width="80" height="81" filterUnits="userSpaceOnUse" color-interpolation-filters="sRGB">
<feFlood flood-opacity="0" result="BackgroundImageFix"/>
<feColorMatrix in="SourceAlpha" type="matrix" values="0 0 0 0 0 0 0 0 0 0 0 0 0 0 0 0 0 0 127 0" result="hardAlpha"/>
<feOffset dy="16"/>
<feGaussianBlur stdDeviation="7.5"/>
<feColorMatrix type="matrix" values="0 0 0 0 0.0588235 0 0 0 0 0.768627 0 0 0 0 0.580392 0 0 0 0.16 0"/>
<feBlend mode="normal" in2="BackgroundImageFix" result="effect1_dropShadow_337_2542"/>
<feBlend mode="normal" in="SourceGraphic" in2="effect1_dropShadow_337_2542" result="shape"/>
</filter>
</defs>
</svg>
